<svg xmlns="http://www.w3.org/2000/svg" preserveAspectRatio="xMidYMid" width="64" height="64" viewBox="0 0 64 64"><defs><style>.cls-3 { fill: #ffffff; } .cls-4 { fill: #23ab5f; }</style></defs><g id="icn-trainingsvg"><path id="rect-1" class="cls-3" d="M0 0h64v64H0z"/><path d="M56 53H40.71c1.147 1.696 3.29 5 3.29 5v1l-1 1H21l-1-1v-1l3.333-5H8c-1.657 0-3-1.343-3-3V13c0-1.657 1.343-3 3-3h48c1.657 0 3 1.343 3 3v37c0 1.657-1.343 3-3 3zm-34 5h20l-4-5H26l-4 5zm35-45c0-.552-.448-1-1-1H8c-.552 0-1 .448-1 1v37c0 .552.448 1 1 1h48c.552 0 1-.448 1-1V13zM10 49l-1-1V15l1-1h44l1 1v33l-1 1H10zm43-33H11v31h42V16zM40.038 30.52c1.283.64.962 1.423.962 1.423v1.03s.307.895-.92 1.422L27 40h-2V24h2l13.038 6.52zM27 38l12-5v-1l-12-6v12z" id="path-1" class="cls-4" fill-rule="evenodd"/></g></svg>