<svg xmlns="http://www.w3.org/2000/svg" preserveAspectRatio="xMidYMid" width="64" height="64" viewBox="0 0 64 64"><defs><style>.cls-3 { fill: #ffffff; } .cls-4 { fill: #23ab5f; }</style></defs><g id="icn-enterprisesvg"><path id="rect-1" class="cls-3" d="M0 0h64v64H0z"/><path d="M63.778 33c-.15.418-.395.79-.805.9C56.086 35.776 48.71 36.417 41 37v-2c7.364-.57 14.408-1.28 21-2.958V15c0-1.105-.895-2-2-2H4c-1.105 0-2 .895-2 2v17.307c6.603 1.6 13.646 2.186 21 2.693v2c-7.717-.52-15.11-1.02-22.02-2.833-1.307-.343-.98-.02-.98-1.01V15c0-2.21 1.79-4 4-4h56c2.21 0 4 1.79 4 4V33h-.222zM23 9V5l1-1h16l1 1v4h-2V6H25v3h-2zm20-5c0-1.105-.895-2-2-2H23c-1.105 0-2 .895-2 2v5h-2V4c0-2.21 1.79-4 4-4h18c2.21 0 4 1.79 4 4v5h-2V4zM28 43c-1.657 0-3-1.343-3-3v-8c0-1.657 1.343-3 3-3h8c1.657 0 3 1.343 3 3v8c0 1.657-1.343 3-3 3h-8zm9-4v-6c0-1.105-.895-2-2-2h-6c-1.105 0-2 .895-2 2v6c0 1.104.895 2 2 2h6c1.105 0 2-.896 2-2zm-7 0l-1-1v-4l1-1h4l1 1v4l-1 1h-4zm3-4h-2v2h2v-2zM3 56c0 1.105.895 2 2 2h54c1.105 0 2-.895 2-2V37h2v19c0 2.21-1.79 4-4 4H5c-2.21 0-4-1.79-4-4V37h2v19z" id="path-1" class="cls-4" fill-rule="evenodd"/></g></svg>