<svg xmlns="http://www.w3.org/2000/svg" preserveAspectRatio="xMidYMid" width="64" height="50" viewBox="0 0 64 50"><defs><style>.cls-2 { fill: #ffffff; opacity: 0.5; }</style></defs><path d="M64 46c0 2.21-1.79 4-4 4H35c-1.202 0-2.267-.54-3-1.38-.733.84-1.798 1.38-3 1.38H4c-2.21 0-4-1.79-4-4V30c0-1.202.54-2.267 1.38-3C.54 26.267 0 25.202 0 24V8c0-2.21 1.79-4 4-4h1V1l1-1h8l1 1v3h3V1l1-1h8l1 1v3h1c1.202 0 2.267.54 3 1.38.733-.84 1.798-1.38 3-1.38h1V1l1-1h8l1 1v3h3V1l1-1h8l1 1v3h1c2.21 0 4 1.79 4 4v16c0 1.202-.54 2.267-1.38 3 .84.733 1.38 1.798 1.38 3v16zm-31 0c0 1.105.895 2 2 2h25c1.105 0 2-.895 2-2V30c0-1.105-.895-2-2-2H35c-1.105 0-2 .895-2 2v16zm-1-18.62c.118-.136.26-.25.394-.368-.146-.126-.28-.26-.406-.406-.123.14-.24.284-.382.406.135.12.276.232.394.368zM2 46c0 1.105.895 2 2 2h25c1.105 0 2-.895 2-2V30c0-1.105-.895-2-2-2H4c-1.105 0-2 .895-2 2v16zM29 6h-3V2h-6v4h-7V2H7v4H4c-1.105 0-2 .895-2 2v16c0 1.105.895 2 2 2h25c1.105 0 2-.895 2-2V8c0-1.105-.895-2-2-2zm33 2c0-1.105-.895-2-2-2h-3V2h-6v4h-7V2h-6v4h-3c-1.105 0-2 .895-2 2v16c0 1.105.895 2 2 2h25c1.105 0 2-.895 2-2V8z" id="path-1" class="cls-2" fill-rule="evenodd"/></svg>