<svg xmlns="http://www.w3.org/2000/svg" preserveAspectRatio="xMidYMid" width="64" height="64" viewBox="0 0 64 64"><defs><style>.cls-3 { fill: #ffffff; } .cls-4 { fill: #23ab5f; }</style></defs><g id="icn-developerssvg"><path id="rect-1" class="cls-3" d="M0 0h64v64H0z"/><path d="M61 60H3c-1.885 0-3-1.146-3-3v-4s.01-1 1-1h27s1-.01 1 1v1h6v-1c0-1.01 1-1 1-1h27s1-.017 1 1.056V57c0 1.854-1.114 3-3 3zm1-6H37c-.22 1.104-.813 2-2 2h-6c-1.186 0-1.78-.896-2-2H2v3l1 1h58l1-1v-3zm-8-40l1 1v33l-1 1H10l-1-1V15l1-1h44zM11 47h42V16H11v31zm25-10v-1l4-4-4-4v-1h1l5 5-5 5h-1zm-6 2v-1l3-13h1v1l-3 13h-1zm-8-7l5-5h1v1l-4 4 4 4v1h-1l-5-5zm35-19c0-.356-.64-1-1-1H8c-.362 0-1 .644-1 1v37H5V13c0-1.748.903-3 2.68-3H56c1.776 0 3 1.252 3 3v37h-2V13z" id="path-1" class="cls-4" fill-rule="evenodd"/></g></svg>