<svg xmlns="http://www.w3.org/2000/svg" preserveAspectRatio="xMidYMid" width="64" height="50" viewBox="0 0 64 50"><defs><style>.cls-2 { fill: #23ab5f; }</style></defs><path d="M64 33c0 9.39-7.61 17-17 17H16C7.163 50 0 42.837 0 34c0-6.472 3.85-12.033 9.378-14.553C11.012 11.765 17.83 6 26 6c.34 0 .67.03 1.005.05C30.125 2.355 34.785 0 40 0c9.39 0 17 7.61 17 17 0 .733-.062 1.45-.152 2.16C61.17 22.242 64 27.286 64 33zm-7.586-11.642c-.554-.447-1.13-.866-1.745-1.232 0-.01 0-.017.003-.026.094-.448.165-.905.218-1.367.008-.054.02-.107.025-.16C54.97 18.054 55 17.53 55 17c0-8.284-6.716-15-15-15-.576 0-1.14.04-1.7.103-.17.02-.337.052-.507.077-.39.058-.777.126-1.158.213-.18.042-.356.09-.533.137-.377.1-.746.217-1.11.346-.15.054-.302.106-.45.164-.43.168-.85.357-1.26.563-.067.034-.137.063-.204.098-1.01.528-1.95 1.17-2.808 1.903l-.032.03c-.27.232-.542.465-.796.716.013.002.026.007.04.01-.56.555-1.095 1.14-1.563 1.776-.248-.03-.495-.057-.745-.077C26.787 8.024 26.397 8 26 8c-.45 0-.894.023-1.333.062-.142.012-.28.036-.422.052-.296.035-.59.07-.88.123-.162.028-.32.066-.48.1-.266.056-.53.115-.793.185-.16.044-.316.092-.473.14-.26.08-.514.163-.765.255-.15.054-.295.11-.442.17-.258.104-.513.215-.765.333-.128.06-.257.12-.384.185-.272.137-.538.285-.8.438-.098.056-.196.11-.292.17-.313.19-.618.396-.915.61-.04.028-.08.053-.117.08-2.576 1.892-4.53 4.582-5.485 7.71l.03-.007c-.225.735-.406 1.49-.517 2.268-1.328.49-2.558 1.17-3.662 2.015l-.04.03c-.254.195-.5.4-.74.613l-.134.12c-.672.612-1.283 1.287-1.825 2.017-.076.1-.154.2-.226.302-.13.187-.253.38-.375.572-.1.157-.195.314-.288.475-.103.177-.204.355-.3.538-.107.208-.207.42-.305.635-.068.15-.142.297-.205.45-.15.36-.285.73-.405 1.106-.04.123-.07.25-.107.377-.08.28-.156.564-.22.853-.032.146-.06.293-.087.44-.055.29-.098.583-.134.878-.017.135-.036.267-.048.403-.04.43-.066.86-.066 1.3 0 7.732 6.268 14 14 14h31c8.284 0 15-6.716 15-15 0-.643-.048-1.273-.127-1.894-.025-.198-.07-.388-.1-.583-.072-.422-.15-.84-.256-1.25-.055-.215-.122-.424-.187-.635-.116-.383-.244-.76-.39-1.13-.08-.2-.162-.397-.25-.593-.17-.378-.354-.745-.552-1.105-.09-.165-.178-.33-.275-.492-.245-.41-.512-.802-.794-1.184-.072-.096-.135-.196-.208-.29-.716-.926-1.53-1.773-2.44-2.51l-.008.024zM22 29.998V29l1-1h5V17l1-1h6l1 1v11h5l1 1v1L32 41 22 30zM34 30V18h-4v12h-6l8 8 8-8h-6z" id="path-1" class="cls-2" fill-rule="evenodd"/></svg>