<svg xmlns="http://www.w3.org/2000/svg" preserveAspectRatio="xMidYMid" width="64" height="50" viewBox="0 0 64 50"><defs><style>.cls-2 { fill: #23ab5f; }</style></defs><path d="M60 50H35c-1.202 0-2.267-.54-3-1.38-.733.84-1.798 1.38-3 1.38H4c-2.21 0-4-1.79-4-4V4c0-2.21 1.79-4 4-4h25c1.202 0 2.267.54 3 1.38C32.733.54 33.798 0 35 0h25c2.21 0 4 1.79 4 4v42c0 2.21-1.79 4-4 4zM29 2H4c-1.105 0-2 .895-2 2v42c0 1.105.895 2 2 2h25c1.105 0 2-.895 2-2v-8c0-1.657 1.343-3 3-3 1.21 0 2.244.72 2.72 1.75.875.773 2.018 1.25 3.28 1.25 2.76 0 5-2.24 5-5s-2.24-5-5-5c-1.262 0-2.405.477-3.28 1.25C36.243 30.28 35.21 31 34 31c-1.657 0-3-1.343-3-3v-6c0-.552-.448-1-1-1-.123 0-.24.03-.348.07-.188.263-.393.51-.615.745-.012.062-.037.12-.037.185h-.15c-1.254 1.228-2.953 2-4.85 2-3.866 0-7-3.134-7-7s3.134-7 7-7c1.897 0 3.596.772 4.85 2H29c0 .066.025.123.037.186.222.233.427.48.615.744.11.04.225.07.348.07.552 0 1-.448 1-1V4c0-1.105-.895-2-2-2zm33 2c0-1.105-.895-2-2-2H35c-1.105 0-2 .895-2 2v8c0 1.657-1.343 3-3 3-1.21 0-2.244-.72-2.72-1.75C26.406 12.478 25.263 12 24 12c-2.76 0-5 2.24-5 5 0 2.762 2.24 5 5 5 1.262 0 2.405-.477 3.28-1.25C27.757 19.72 28.79 19 30 19c1.657 0 3 1.343 3 3v6c0 .552.448 1 1 1 .123 0 .24-.03.348-.07.188-.263.393-.51.615-.745.012-.062.037-.12.037-.185h.15c1.254-1.228 2.953-2 4.85-2 3.866 0 7 3.134 7 7s-3.134 7-7 7c-1.897 0-3.596-.772-4.85-2H35c0-.066-.025-.123-.037-.185-.222-.234-.427-.482-.615-.745-.11-.04-.225-.07-.348-.07-.552 0-1 .448-1 1v8c0 1.105.895 2 2 2h25c1.105 0 2-.895 2-2V4z" id="path-1" class="cls-2" fill-rule="evenodd"/></svg>