<svg xmlns="http://www.w3.org/2000/svg" preserveAspectRatio="xMidYMid" width="45" height="38" viewBox="0 0 45 38"><defs><style>.cls-3 { fill: #878d92; opacity: 0.5; fill-opacity: 0.4; } .cls-4 { fill: #878d92; opacity: 0.5; } .cls-5 { fill: #878d92; }</style></defs><g id="logo---nasasvg"><circle id="circle-1" class="cls-3" cx="20" cy="19" r="19"/><path d="M44.572 2.775c.076-.132.147-.26.203-.372-2.114 3.28-7.36 6.673-10.908 8.425-7.287 3.598-13.228 5.32-21.12 7.88-4.35 1.41-7.31 2.61-10.04 4.138l-.003-.004c-1.013.487-1.92.968-2.69 1.438l.467.168c.675-.407 1.484-.833 2.336-1.207 8.868-3.853 23.33-4.658 33.238-11.276-7.028 5.884-10.194 7.104-15.183 10.432-2.972 1.984-8 4.965-12.816 9.65-.926.794-1.883 1.64-2.843 2.53l-.042.627c.88-.89 1.96-1.85 3.207-2.87l-.006-.006c3.65-3.026 8.208-6.3 12.795-9.223C30.683 17.04 41.99 10.69 44.812 2.468l-.24.307z" id="path-1" class="cls-4" fill-rule="evenodd"/><path d="M29.62 25.077c0-.1.085-.183.186-.183.102 0 .185.082.185.183 0 .1-.082.183-.184.183-.1 0-.185-.083-.185-.183zm.163 1.462c-.102 0-.185-.083-.185-.184 0-.1.083-.182.185-.182s.185.082.185.182c0 .1-.083.183-.185.183zm2.984-4.014c.722-.64.63-.64.315-1.573h-2.26c-.465 1.06.143 1.56.22 1.554-.25.013-.798.014-1.29.01 1.038 3.03 2.207 9.376-5.158 6.308l-.045-.09c5.87 2.385 6.617-1.508 4.868-6.22-.362-.003-.636-.008-.636-.008.21-.145.368-.267.49-.37-.414-1.05-.946-2.128-1.567-3.183.08-.05.158-.102.237-.153.07.116.137.23.203.345.06.102.118.202.173.302.044.078.088.156.13.234.09.163.177.324.26.483.08.15.157.3.23.45.155.306.297.61.427.904.05.11.103.24.16.382.164-.184.147-.252.147-.252.26-.912.56-1.91.824-2.816.266-.915.495-1.734.603-2.267.017-.092-.205-.42-.557-.75l-.025-.05c1.698.005 3.472.013 3.472.013.463 1.116 1.52 4.243 2.316 6.163.21.508.574.604.574.604-1.445-.018-4.127-.006-4.113-.018zm-.945-4.956l-.4 1.262-.397 1.262h1.797l-1-2.524zM13.5 9.614c0-.082.067-.148.15-.148.082 0 .15.066.15.148 0 .08-.068.15-.15.15-.083 0-.15-.07-.15-.15zm.648.777c0-.08.068-.148.15-.148.083 0 .15.068.15.15 0 .08-.067.148-.15.148-.082 0-.15-.067-.15-.15zm1.4.253l-.052-.497c-.088-.018-.158-.086-.178-.172l-.476-.05.476-.053c.02-.083.088-.15.173-.17l.053-.475.053.475c.084.02.15.085.17.168l.478.043-.475.062c-.02.083-.085.15-.168.17l-.053.5zm12.01 6.708c-.304-.23-.608-.403-.9-.527.322.46.627.918.913 1.373l-.235.152c-.153-.243-.31-.485-.47-.723-.224-.328-.45-.65-.684-.966-1.672-.44-2.7.727-.826 1.294.583.177 1.1.41 1.534.678-.812.512-1.596.99-2.385 1.47-.25-.093-.534-.197-.854-.32-2.19-.83-1.964-4.44 1.82-4.055-1.43-1.8-2.97-3.37-4.314-4.556l-.006-.003c-.104-.093-.208-.182-.31-.27-.205-.173-.404-.338-.6-.496l-.215-.17-.04-.03c-.128-.1-.254-.196-.378-.29-.07-.05-.136-.098-.202-.148-6.532-4.708-10.516-1.828-5.93 7.407.406.814.843 1.555 1.294 2.244l.197-.673c.267-.915.495-1.733.603-2.267.018-.09-.204-.42-.556-.75l-.025-.05c1.697.005 3.47.014 3.47.014.464 1.115 1.52 4.242 2.317 6.162.21.507.575.603.575.603-1.446-.02-4.128-.006-4.114-.02.722-.64.63-.64.315-1.57H15.79c.882 1.176 1.772 2.2 2.55 3.192l-.404.265-.013-.02c-.895-1.065-1.765-2.172-2.634-3.43-.458 1.054.146 1.55.224 1.546-.514.026-2.26 0-2.26 0 .944-.658.89-.86.89-.86.153-.54.32-1.11.487-1.674-.44-.683-.882-1.41-1.327-2.202-3.534-6.27-3.024-12.672 3.37-9.883h.002l.004.004c3.41 1.49 6.72 4.663 9.227 7.987 1.378.227 1.104.278 1.67-.173 0 0-.036.42 0 1.718l-.018.02zm-10.265 2.652l-1-2.523-.4 1.26-.397 1.262h1.797zm7.093-11.52c0 .1-.084.183-.185.183-.1 0-.185-.082-.185-.182 0-.1.084-.183.186-.183s.186.082.186.183zm-.167-3.87l-.054.5-.053-.497c-.088-.018-.158-.086-.178-.173l-.476-.05.475-.053c.02-.084.087-.15.173-.17l.052-.476.052.475c.085.02.15.084.172.167l.477.043-.474.06c-.02.084-.084.15-.167.17zM21.5 6.767c.083 0 .15.067.15.15 0 .08-.067.147-.15.147-.083 0-.15-.067-.15-.148 0-.082.067-.15.15-.15zm-.012-1.782c-.1 0-.185-.083-.185-.183 0-.1.084-.183.185-.183.102 0 .186.082.186.183 0 .1-.084.183-.186.183zM20.483 2.7c-.083 0-.15-.067-.15-.15 0-.08.067-.147.15-.147.082 0 .15.067.15.148 0 .083-.068.15-.15.15zm-.602 3.52c-.082 0-.15-.068-.15-.15 0-.08.068-.147.15-.147.083 0 .15.067.15.148 0 .082-.067.15-.15.15zm-.52-1.486c-.102 0-.186-.082-.186-.183 0-.1.084-.182.185-.182.1 0 .185.083.185.183 0 .102-.084.184-.186.184zm-1.54 2.034c-.084 0-.152-.067-.152-.148 0-.082.068-.15.15-.15.084 0 .152.068.152.15 0 .08-.068.148-.15.148zm-.44-.297c-.084 0-.152-.066-.152-.148 0-.08.068-.148.15-.148.083 0 .15.067.15.148 0 .082-.067.15-.15.15zm-.082.72c0 .083-.068.15-.15.15-.083 0-.15-.067-.15-.15 0-.08.067-.147.15-.147.082 0 .15.066.15.148zm-.36-1.017c-.08 0-.15-.066-.15-.147 0-.08.07-.15.15-.15.083 0 .152.07.152.15 0 .08-.07.147-.15.147zM9.863 15.65c.908 0 2.094.02 2.094.02-.444.51-.533.47-.537.785-.013 1.018-.025 2.898 0 5.01.002.317.24.44.63.988H9.14c-.945-1.555-2.677-4.47-2.67-4.462.015.014-.036 1.83.02 3.292.018.483.24.64.646 1.077-.114-.002-.586 0-2.277.02.833-.44.722-.988.722-1.006-.03-2.02-.006-3.75-.006-4.864 0-.183-.013-.165-.587-.86l.04-.03c3.165.024 2.868-.006 2.905.03.056 0 2.54 4.225 2.54 4.26 0 .02-.02-1.5-.02-3.4 0-.22-.61-.86-.593-.86zm-2.724 6.71h-.002.002zm-.183 4.956c.083 0 .15.068.15.15 0 .08-.067.148-.15.148-.082 0-.15-.067-.15-.15 0-.08.068-.148.15-.148zm1.784.846c.08 0 .15.067.15.15 0 .08-.07.148-.15.148-.084 0-.152-.068-.152-.15 0-.08.068-.148.15-.148zm.057-.87c0-.1.083-.18.185-.18s.185.08.185.18c0 .102-.083.184-.185.184s-.185-.082-.185-.183zm.67 1.42c.103 0 .187.08.187.182 0 .1-.084.183-.186.183-.1 0-.185-.083-.185-.183 0-.1.084-.183.185-.183zm2.422-.687c.082 0 .15.067.15.15 0 .08-.068.147-.15.147-.083 0-.15-.067-.15-.148 0-.082.067-.15.15-.15zm1.146 2.297c0-.08.068-.148.15-.148.083 0 .15.067.15.148 0 .082-.067.15-.15.15-.082 0-.15-.068-.15-.15zm.602-7.383c0-.082.068-.15.15-.15.083 0 .15.068.15.15 0 .08-.067.148-.15.148-.082 0-.15-.067-.15-.15zm.394 3.462c0 .1-.084.183-.186.183-.1 0-.185-.083-.185-.183 0-.1.085-.183.186-.183.102 0 .186.082.186.182zm-.394 5.835l.052-.475.053.475c.084.02.15.085.17.168l.478.043-.474.06c-.02.084-.084.15-.167.17l-.054.5-.053-.495c-.088-.02-.158-.087-.178-.173l-.476-.05.475-.052c.02-.084.087-.15.173-.17zm1.39-3.458c.1 0 .185.082.185.182 0 .1-.084.183-.185.183-.102 0-.186-.083-.186-.183 0-.1.084-.183.186-.183zm.243 1.782c.084 0 .152.067.152.15 0 .08-.068.147-.15.147-.084 0-.152-.068-.152-.15 0-.08.068-.148.15-.148zm5.664-3.61c-.632.557-1.91-1.056-2.58-2.008l.497-.33c1.176 1.11 2.764 1.738 2.084 2.337zm-1.54 3.2c.083 0 .15.066.15.147 0 .08-.067.148-.15.148-.082 0-.15-.067-.15-.15 0-.08.068-.147.15-.147zm2.95-8.716l-.01-.72c.17.157.343.29.512.406-.165.103-.332.207-.5.314zm6.015 6.544c.08 0 .15.066.15.148 0 .08-.07.148-.15.148-.084 0-.152-.067-.152-.148 0-.082.068-.148.15-.148zm0-2.058c.08 0 .15.067.15.15 0 .08-.07.147-.15.147-.084 0-.152-.068-.152-.15 0-.08.068-.148.15-.148zm-2.43-4.603c.168-.402-.003-.614-.563-.872.712-.45 1.425-.905 2.134-1.362 1.12 1.005 1.17 2.306-.645 3.22-1.723.868-3.632.037-3.65.037 0 0-.612.414-.834.64l-.01-.634 1.29-.817c1.232.44 2.21-.05 2.28-.214zm-2.946 7.574c.083 0 .15.067.15.148 0 .082-.067.15-.15.15-.082 0-.15-.068-.15-.15 0-.08.068-.148.15-.148zm6.07 3.062c.082 0 .15.068.15.15 0 .08-.068.148-.15.148-.083 0-.15-.068-.15-.15 0-.08.067-.148.15-.148zm3.08-8.022c.083 0 .15.067.15.148 0 .082-.067.15-.15.15-.082 0-.15-.068-.15-.15 0-.08.068-.148.15-.148zm.324 3.885c.083 0 .15.066.15.148 0 .08-.067.15-.15.15-.082 0-.15-.07-.15-.15 0-.082.068-.15.15-.15zm.012-3.017c.102 0 .185.082.185.182 0 .1-.083.183-.185.183s-.185-.083-.185-.183c0-.1.083-.182.185-.182zm.3 3.777l.053-.475.053.475c.084.02.15.085.17.168l.478.043-.475.06c-.02.084-.085.15-.168.172l-.053.5-.054-.496c-.088-.018-.158-.087-.178-.173l-.475-.05.475-.053c.02-.083.088-.15.173-.17zm1.055.085c.083 0 .15.067.15.15 0 .08-.067.147-.15.147-.083 0-.15-.067-.15-.148 0-.082.067-.15.15-.15zm.3-2.4c.084 0 .152.067.152.15 0 .08-.068.147-.15.147-.083 0-.15-.067-.15-.148 0-.082.067-.15.15-.15zm-.38-1.44l.475-.05c.02-.086.087-.152.172-.172l.053-.475.052.475c.084.02.15.085.172.167l.475.043-.474.062c-.018.082-.083.148-.166.17l-.054.5-.052-.496c-.088-.02-.158-.087-.178-.174l-.476-.05zm1.32 1.052c.1 0 .185.082.185.182 0 .1-.084.182-.186.182-.1 0-.185-.082-.185-.183 0-.1.083-.183.184-.183z" id="path-2" class="cls-5" fill-rule="evenodd"/></g></svg>