<svg xmlns="http://www.w3.org/2000/svg" preserveAspectRatio="xMidYMid" width="89" height="20" viewBox="0 0 89 20"><defs><style>.cls-3 { fill: #878d92; } .cls-4 { fill: #878d92; opacity: 0.5; }</style></defs><g id="logo---hyattsvg" fill-rule="evenodd"><path d="M83.112 1.176h-.167v14.049h-2.343V1.176H75.415V.06h12.662v1.116h-4.965zm-18.407 0v14.049h-2.342V1.176h-5.188V.06h12.662v1.116H64.705zM45.168 3.114l-.163-.356-.145.363-6.54 16.454h-1.694L45.178.01l.956.046 9.16 19.518H52.71l-7.542-16.46zm-15.826 5.37v6.74H27V8.652l-.03-.042L21.125.06h2.602l4.524 7.282.144.228.142-.228L33.06.062h1.99l-5.68 8.38-.028.042zm-18.407-.562v-.167h-8.59v7.47H.002V.06h2.343V6.53h8.59V.06h2.342v15.165h-2.342V7.922z" id="path-1" class="cls-3"/><path d="M65.186 14.327v-2.033c5.497 1.663 10.547 4.076 14.753 7.283-4.75-2.263-9.7-4-14.754-5.25zm-12.832-2.12l-1.182-2.5c3.744.3 7.44.88 10.985 1.756v2.177c-3.243-.672-6.518-1.15-9.803-1.432zM41.66 11.96l.98-2.445c1.735-.058 3.475-.058 5.21.003l1.14 2.467c-2.447-.113-4.893-.12-7.33-.026zm-12.037 1.3v-2.177c3.54-.754 7.216-1.244 10.934-1.47l-1.08 2.457c-3.32.21-6.612.61-9.854 1.19zm-3.028-1.46v2.063c-5.97 1.296-11.73 3.214-17.11 5.714 4.692-3.462 10.608-6.075 17.11-7.776z" id="path-2" class="cls-4"/></g></svg>