<svg xmlns="http://www.w3.org/2000/svg" preserveAspectRatio="xMidYMid" width="43" height="37" viewBox="0 0 43 37"><defs><style>.cls-2 { fill: #878d92; }</style></defs><path d="M.11 21.907h42.337v2.75H.11v-2.75zm0-5.5h42.337v2.75H.11v-2.75zm0-5.498h42.337v2.75H.11v-2.75zm11.086-5.5h31.25v2.75h-31.25V5.41zm0-5.406h31.25v2.75h-31.25V.003zM.11.004H8.34V8.16H.11V.004zm1.793 33.24c-.414.016-.463.04-.463.303v1.97c0 .586.232.924.78.924.56 0 .78-.337.78-.922v-1.97c0-.263-.05-.288-.463-.304v-.195h1.9v.194c-.414.016-.463.04-.463.303v1.9c-.012.887-.627 1.23-1.754 1.23-1.218 0-1.754-.343-1.754-1.23v-1.9c0-.262-.05-.287-.463-.303v-.195h1.9v.194zm3.577 1.768h-.6v-.58h.6v.58zm2.124 1.43c.396 0 .688-.18.694-.56 0-.328-.255-.56-.81-.754-.536-.19-1.212-.467-1.212-1.104 0-.605.494-1.05 1.517-1.05.37 0 .822.06 1.14.224v.842h-.22c-.17-.6-.536-.832-.926-.832-.366 0-.634.206-.634.524 0 .39.506.575.908.713.555.195 1.152.457 1.152 1.134 0 .533-.365 1.087-1.584 1.097-.402 0-1.004-.076-1.315-.317l-.09-.92h.224c.23.642.694 1 1.157 1zm4.24-.303c.146-.315.347-.833.566-1.36l.707-1.73h.767l1.2 3.11c.08.21.16.24.475.246v.195h-1.925v-.194l.353-.03c.128-.01.146-.078.103-.186l-.315-.852h-1.182c-.11.303-.22.58-.292.857-.03.113-.024.175.11.185l.366.026v.195H11.35v-.194c.33-.016.397-.05.494-.267zm1.833-1.048l-.475-1.33h-.018l-.493 1.33h.987zm4.58-1.848c-.433.016-.48.04-.48.303v2.556c0 .262.047.287.48.303v.195H16.32v-.194c.432-.016.48-.04.48-.303v-2.556c0-.262-.048-.287-.48-.303v-.195h1.937v.194zm4.49.072c.218.17.303.39.303.652 0 0 .007.846-.792.937 0 0 .823 1.195 2.13 1.5v.196s-1.11.434-2.647-1.23c-.242-.264-.243-.4-.547-.4h-.28v1.133c0 .262.048.287.48.303v.195h-1.936v-.194c.432-.016.48-.04.48-.303v-2.556c0-.262-.048-.287-.48-.303v-.195h2.113c.597 0 .944.097 1.176.266zm-1.835.17v1.247h.305c.615 0 .81-.308.81-.734 0-.525-.31-.715-.725-.715-.335 0-.39.062-.39.2zm3.385-.437h1.748v.184l-.28.036c-.067.005-.104.025-.122.057-.012.03-.006.076.012.138l.694 2.32h.01l.757-2.66h.676l.804 2.66h.024l.348-1.155c.19-.642.28-1.02.305-1.15.024-.123.012-.19-.116-.205l-.347-.04v-.186h1.395v.184c-.33.036-.384.06-.47.298-.09.246-.26.733-.438 1.288l-.566 1.78h-.773l-.75-2.4h-.017l-.72 2.4h-.766l-.536-1.714c-.17-.533-.323-1.03-.457-1.406-.066-.185-.11-.22-.413-.246v-.185zm6.635 3.09c.147-.315.348-.833.567-1.36l.705-1.73h.768l1.2 3.11c.08.21.158.24.475.246v.195h-1.925v-.194l.353-.03c.128-.01.147-.078.104-.186l-.317-.852h-1.18c-.11.303-.22.58-.294.857-.03.113-.025.175.11.185l.364.026v.195H30.44v-.194c.328-.016.395-.05.492-.267zm1.834-1.048l-.475-1.33h-.017l-.494 1.33h.986zm3.965-1.848l-.328.03c-.134.016-.128.088-.085.17l.75 1.402h.017c.244-.462.567-1.017.725-1.366.06-.133.023-.195-.092-.205l-.317-.03v-.196h1.47v.194c-.33.03-.434.072-.574.277-.286.422-.597.946-.883 1.433-.067.118-.11.22-.11.365v.785c0 .262.05.287.585.303v.195h-2.144v-.194c.536-.016.585-.04.585-.303v-.734c0-.13-.068-.253-.13-.355l-.882-1.478c-.14-.236-.195-.272-.512-.293v-.195h1.925v.194zm4.16 3.197c.396 0 .69-.178.695-.558 0-.328-.256-.56-.81-.754-.536-.19-1.212-.467-1.212-1.104 0-.605.493-1.05 1.516-1.05.37 0 .82.06 1.138.224v.842h-.22c-.17-.6-.535-.832-.925-.832-.365 0-.633.206-.633.524 0 .39.505.575.907.713.554.195 1.15.457 1.15 1.134 0 .533-.364 1.087-1.582 1.097-.402 0-1.005-.076-1.316-.317l-.092-.92h.225c.232.642.695 1 1.157 1z" id="path-1" class="cls-2" fill-rule="evenodd"/></svg>