<svg xmlns="http://www.w3.org/2000/svg" preserveAspectRatio="xMidYMid" width="84" height="25" viewBox="0 0 84 25"><defs><style>.cls-3 { fill: #878d92; } .cls-4 { fill: #878d92; opacity: 0.5; }</style></defs><g id="logo---amazonsvg" fill-rule="evenodd"><path d="M82.646 14.394h-2.58c-.238-.015-.43-.188-.458-.412V6.878c0-1.432.17-3.525-1.61-3.525-.624 0-1.2.413-1.488 1.047-.36.798-.41 1.596-.41 2.478v7.045c-.003.262-.226.47-.5.47h-2.563c-.258-.015-.462-.218-.462-.47L72.57.834c.023-.238.236-.426.495-.426h2.387c.225.01.41.163.457.366v2.002h.048C76.678.985 77.688.13 79.464.13c1.153 0 2.282.414 3.003 1.543.672 1.047.672 2.81.672 4.076v8.232c-.03.232-.24.412-.494.412zm-17.883.276c-3.747 0-5.79-3.25-5.79-7.297 0-4.075 2.067-7.242 5.79-7.242 3.82 0 5.885 3.25 5.885 7.38 0 3.993-2.282 7.16-5.885 7.16zm1.705-10.6c-.288-.91-.865-1.268-1.68-1.268-1.9 0-2.02 2.56-2.02 4.158 0 1.597-.023 5.01 1.995 5.01 1.994 0 2.09-2.752 2.09-4.432 0-1.1-.048-2.423-.385-3.47zM57.114 14c-2.603-1.35-6.058-1.498-8.936.018-.294.155-.602-.16-.602-.433v-1.897c0-.303.006-.823.315-1.285l5.076-7.215h-4.42c-.27 0-.486-.192-.488-.472V.846c0-.284.218-.474.48-.473h8.456c.27 0 .488.194.488.47V2.45c-.002.27-.23.62-.637 1.177l-4.38 6.197c1.625-.037 3.346.204 4.823 1.027.333.184.423.46.45.73v1.994c0 .275-.305.593-.624.427zm-13.198.367l-.006-.005c-.17.15-.416.16-.608.06-.854-.705-1.008-1.03-1.475-1.7-1.412 1.425-2.413 1.853-4.242 1.853-2.166 0-3.85-1.324-3.85-3.974 0-2.068 1.13-3.476 2.743-4.165 1.396-.608 3.346-.718 4.838-.883v-.33c0-.61.048-1.326-.313-1.85-.313-.47-.915-.663-1.444-.663-.983 0-1.855.498-2.07 1.53-.044.23-.213.458-.446.47l-2.494-.27c-.21-.045-.445-.213-.384-.532C34.74.91 37.47.005 39.92.005c1.25 0 2.888.33 3.875 1.27 1.252 1.158 1.13 2.704 1.13 4.387v3.972c0 1.195.503 1.72.973 2.363.164.23.2.507-.01.677-.524.437-1.458 1.24-1.972 1.693zm-2.6-6.773c-1.862 0-3.827.395-3.827 2.566 0 1.104.576 1.85 1.563 1.85.722 0 1.372-.443 1.782-1.16.505-.883.48-1.71.48-2.705v-.55zm-9.827 6.33c0 .26-.224.47-.497.47h-2.57c-.26-.016-.463-.22-.463-.47V6.988c0-.55.048-1.928-.072-2.45-.192-.882-.77-1.13-1.513-1.13-.625 0-1.274.413-1.538 1.074-.264.66-.24 1.762-.24 2.506v6.935c0 .262-.222.47-.496.47h-2.57c-.257-.015-.46-.218-.46-.47l-.004-6.935c0-1.46.24-3.607-1.585-3.607-1.848 0-1.776 2.093-1.776 3.608v6.935c0 .262-.223.47-.498.47h-2.572c-.245-.015-.44-.197-.46-.43V.88c0-.263.223-.473.497-.473h2.398c.25.013.452.2.468.44v1.708h.048C18.208.902 19.384.13 20.97.13c1.61 0 2.618.772 3.34 2.425C24.932.902 26.35.13 27.863.13c1.08 0 2.257.442 2.978 1.433.817 1.102.65 2.7.65 4.103l-.003 8.257zm-21.305.443l-.006-.005c-.17.15-.417.16-.61.06-.854-.705-1.007-1.03-1.474-1.7-1.412 1.425-2.413 1.853-4.242 1.853-2.167 0-3.85-1.324-3.85-3.974 0-2.068 1.13-3.476 2.743-4.165 1.396-.608 3.346-.718 4.838-.883v-.33c0-.61.048-1.326-.313-1.85-.313-.47-.915-.663-1.444-.663-.982 0-1.854.498-2.068 1.53-.045.23-.214.458-.448.47L.82 4.44C.607 4.396.373 4.228.434 3.91 1.008.91 3.74.005 6.19.005c1.25 0 2.887.33 3.874 1.27 1.252 1.158 1.13 2.704 1.13 4.387v3.972c0 1.195.502 1.72.973 2.363.164.23.2.507-.01.677-.524.437-1.458 1.24-1.972 1.693zm-2.6-6.773c-1.862 0-3.827.395-3.827 2.566 0 1.104.577 1.85 1.564 1.85.722 0 1.372-.443 1.78-1.16.507-.883.483-1.71.483-2.705v-.55z" id="path-1" class="cls-3"/><path d="M52.757 22.53c-.397.328-.776.153-.6-.28.582-1.43 1.885-4.634 1.268-5.41-.617-.778-4.075-.37-5.628-.187-.47.056-.543-.348-.12-.642 2.76-1.907 7.28-1.356 7.804-.717.53.644-.138 5.107-2.723 7.237zm-1.338-3.437c-4.82 3.503-11.806 5.365-17.82 5.365-8.433 0-16.025-3.07-21.77-8.18-.452-.4-.05-.948.493-.637 6.198 3.553 13.864 5.693 21.782 5.693 5.34 0 11.212-1.092 16.614-3.348.814-.34 1.497.53.7 1.108z" id="path-2" class="cls-4"/></g></svg>