<svg xmlns="http://www.w3.org/2000/svg" preserveAspectRatio="xMidYMid" width="33" height="43" viewBox="0 0 33 43"><defs><style>.cls-3 { fill: #878d92; opacity: 0.3; } .cls-4 { fill: #878d92; }</style></defs><g id="logo---spotifysvg" fill-rule="evenodd"><path d="M32.532 16.13c0 8.903-7.28 16.12-16.26 16.12S.01 25.033.01 16.13C.01 7.23 7.29.014 16.27.014c8.982 0 16.262 7.216 16.262 16.118z" id="path-1" class="cls-3"/><path d="M29.95 38.48c-.392 0-.697-.312-.697-.69v-.003c0-.378.31-.694.702-.694.392 0 .698.312.698.69v.004c0 .377-.31.694-.702.694zm.62-.697c0-.34-.264-.614-.615-.614-.354 0-.62.277-.62.617v.003c0 .34.264.614.616.614.354 0 .62-.278.62-.617v-.004zm-.453.352l-.16-.237h-.128v.237h-.165v-.738h.33c.1 0 .178.03.23.08.04.04.062.097.062.162v.003c0 .12-.066.193-.16.228l.18.265h-.19zm.004-.486c0-.072-.05-.11-.13-.11h-.16v.218h.163c.083 0 .128-.044.128-.106v-.003zm-4.097 5.166c-.447 0-.888-.112-1.205-.3l.413-.87c.163.1.424.19.586.19.21 0 .404-.133.52-.4l-1.377-3.345h-.917v3.39h-1.175v-3.39h-.526v-.986h.552v-.28c0-.486.145-.84.378-1.07.234-.232.53-.348.982-.348.4 0 .668.05.9.124v.995c-.182-.066-.358-.107-.575-.107-.293 0-.548.148-.548.478v.216H25.743l1.165 2.992 1.062-2.984 1.174.002-1.82 4.678c-.134.345-.51 1.016-1.3 1.016zm.125-27.558c-.702-.394-1.42-.75-2.167-1.047-1.484-.59-3.023-.987-4.596-1.262-1.095-.192-2.198-.318-3.307-.384-1.153-.07-2.307-.077-3.462-.018-1.324.068-2.637.212-3.932.49-.478.102-.95.23-1.424.356-.29.077-.576.087-.865.003-.632-.183-1.068-.745-1.087-1.402-.018-.64.38-1.233 1.004-1.437.457-.15.926-.267 1.396-.375 1.162-.265 2.34-.43 3.528-.537 1.26-.115 2.525-.15 3.79-.116 3.115.09 6.17.54 9.125 1.553 1.206.412 2.366.924 3.47 1.562.392.228.656.548.756.992.024.105.03.215.044.322-.005 1.167-1.24 1.882-2.272 1.302zM6.613 37.32c-.51-.357-1.01-.572-1.495-.572-.485 0-.74.223-.74.505v.017c0 .38.247.505 1.24.762 1.167.306 1.824.728 1.824 1.74v.016c0 1.15-.87 1.797-2.11 1.797-.87 0-1.75-.307-2.44-.928l.748-.902c.517.43 1.06.703 1.716.703.517 0 .83-.206.83-.546v-.017c0-.323-.198-.488-1.158-.737-1.158-.298-1.906-.62-1.906-1.772v-.017c0-1.053.838-1.748 2.012-1.748.838 0 1.552.264 2.135.737l-.657.96zm2.336.365c.3-.41.743-.668 1.468-.668.988 0 1.985.823 1.985 2.287v.016c0 1.464-1.04 2.265-2.073 2.265-.66 0-1.066-.303-1.36-.654v1.86H7.823V37.1H8.95v.585zm1.15 2.912c.643 0 1.164-.58 1.164-1.295 0-.716-.52-1.296-1.164-1.296-.643 0-1.164.58-1.164 1.296 0 .715.52 1.295 1.164 1.295zm4.992-3.58c1.336 0 2.327 1.01 2.327 2.275v.017c0 1.264-1 2.29-2.345 2.29-1.337 0-2.35-1.01-2.35-2.275v-.016c0-1.267 1.02-2.294 2.367-2.294zm-.02 3.61c.68 0 1.232-.586 1.232-1.31 0-.722-.55-1.308-1.232-1.308-.68 0-1.23.585-1.23 1.308 0 .723.55 1.31 1.23 1.31zm2.967-4.696h1.142v1.157h1.148v1.01h-1.148v1.984c0 .365.23.45.51.45.23 0 .44-.077.622-.176v.966c-.264.157-.57.257-.99.257-.766 0-1.285-.307-1.285-1.333v-2.146h-.55v-1.01h.55V35.93zm-.05-17.98c-1.39-.26-2.794-.387-4.285-.394-1.857.008-3.76.236-5.616.783-.304.088-.608.094-.905-.025-.482-.194-.796-.674-.78-1.18.02-.53.344-.992.86-1.148.523-.158 1.054-.296 1.59-.413 1.315-.29 2.65-.444 3.997-.494 2.9-.11 5.732.262 8.496 1.14 1.397.445 2.734 1.027 3.997 1.77l.187.114c.66.4.737 1.202.423 1.714-.36.585-1.105.767-1.726.42-.35-.196-.697-.4-1.055-.58-1.64-.83-3.38-1.368-5.186-1.707zm4.715 6.648c-.094-.04-.18-.095-.27-.147-1.72-1.01-3.576-1.637-5.55-1.936-1.21-.184-2.428-.248-3.65-.2-1.582.06-3.144.28-4.69.618-.155.035-.315.066-.474.067-.478.004-.882-.332-.966-.788-.088-.484.153-.936.6-1.114.094-.038.195-.062.294-.084 1.264-.28 2.54-.495 3.83-.603.72-.06 1.445-.083 2.167-.123 2.138.022 4.23.31 6.258.988 1.12.374 2.188.858 3.203 1.457.088.053.177.104.258.164.41.31.516.868.253 1.307-.256.427-.8.598-1.262.395zm-1.367 10.577c.39 0 .708.314.708.702 0 .387-.317.7-.708.7-.39 0-.707-.313-.707-.7 0-.388.318-.702.708-.702zm.565 6.328h-1.13V37.12h1.13v4.383z" id="path-2" class="cls-4"/></g></svg>