<svg xmlns="http://www.w3.org/2000/svg" preserveAspectRatio="xMidYMid" width="76" height="20" viewBox="0 0 76 20"><defs><style>.cls-3 { fill: #878d92; } .cls-4 { fill: #878d92; opacity: 0.5; }</style></defs><g id="logo---citybanksvg" fill-rule="evenodd"><path d="M8.976 15.88l-.053.05c-.85.86-1.83 1.317-2.842 1.317-2.11 0-3.644-1.58-3.644-3.753 0-2.172 1.533-3.75 3.645-3.75 1.012 0 1.994.457 2.843 1.318l.053.054 1.358-1.635-.037-.044c-1.13-1.33-2.485-1.974-4.15-1.974-1.673 0-3.2.56-4.302 1.57-1.198 1.093-1.83 2.635-1.83 4.462 0 1.825.632 3.372 1.83 4.466 1.1 1.014 2.63 1.57 4.3 1.57 1.667 0 3.022-.645 4.152-1.975l.037-.04-1.358-1.636zm2.73 3.428h2.4V7.65h-2.4V19.31zm11.798-2.535c-.64.39-1.236.583-1.77.583-.777 0-1.126-.406-1.126-1.313V9.857h2.444V7.66h-2.444V4.036l-2.352 1.25v2.376h-2.028v2.197h2.028v6.58c0 1.793 1.067 3.016 2.66 3.05 1.082.02 1.733-.3 2.13-.535l.022-.016.578-2.25-.142.087zm1.988 2.535h2.4V7.65h-2.4V19.31zm40.67-16.093v11.12l.747-1.157c-.003.005 3.357-4.836 3.787-5.452h1.497c-.32.425-2.96 4.042-2.96 4.042s3.44 7.135 3.64 7.54h-1.47c-.082-.166-3.037-6.393-3.037-6.393l-2.205 3.077v3.316h-1.37V3.994c.12-.07 1.046-.598 1.37-.78zm-11.25 5.89c.705-1.05 1.812-1.63 3.107-1.63 2.582 0 3.95 1.64 3.95 4.74v7.093h-1.373v-6.8c0-2.637-.92-3.862-2.915-3.862-1.91 0-3.048 1.444-3.048 3.863v6.798h-1.37V7.726h1.37V9.52l.278-.414zm-8.417-1.63c2.657 0 3.948 1.21 3.948 3.698v8.135h-1.37v-1.69l-.266.293c-1.01 1.108-2.164 1.65-3.542 1.65-1.08 0-3.592-.357-3.592-3.655 0-2.695 2.236-3.652 4.33-3.652 1.053 0 2.092.24 2.845.662l.226.124v-1.664c0-1.843-.905-2.778-2.693-2.778-1.1 0-2.098.277-3.117.85-.09-.207-.407-.902-.495-1.1 1.066-.56 2.383-.873 3.727-.873zm-3.48 8.318c0 1.73.903 2.685 2.542 2.685 1.392 0 2.632-.656 3.49-1.848l.027-.042V14.05l-.077-.044c-.874-.496-1.768-.696-3.085-.696-1.81 0-2.896.928-2.896 2.483zM32.443 3.215v6.197l.264-.29c1.01-1.108 2.127-1.647 3.41-1.647 2.568 0 4.04 2.13 4.04 5.848 0 3.787-1.672 6.236-4.265 6.236-1.263 0-2.274-.49-3.182-1.534l-.266-.31v1.592h-1.367V3.994c.116-.07 1.045-.598 1.367-.78zm.032 7.206l-.032.043v6.03l.025.037c.754 1.164 1.986 1.86 3.295 1.86 2.023 0 3.048-1.698 3.048-5.042 0-2.99-1.136-4.702-3.116-4.702-1.2 0-2.285.597-3.22 1.775zm42.3-4.287c0 .136-.094.194-.22.194h-.363V5.94h.364c.126 0 .22.065.22.193zm.236-.006c0-.285-.205-.413-.448-.413h-.603V7.08h.23v-.527h.266l.268.527H75l-.282-.55c.178-.053.292-.19.292-.403zm.683.294c0-.708-.542-1.25-1.256-1.25s-1.257.542-1.257 1.25c0 .712.543 1.25 1.257 1.25.714 0 1.256-.538 1.256-1.25zm-.202 0c0 .597-.456 1.05-1.053 1.05-.6 0-1.055-.453-1.055-1.05 0-.595.455-1.048 1.055-1.048.597 0 1.054.453 1.054 1.05z" id="path-1" class="cls-3"/><path d="M29.653 4.99c-2.2-3.13-5.85-4.995-9.565-4.995S12.72 1.86 10.525 4.99l-.112.16h2.768l.032-.034c1.886-1.954 4.345-2.986 6.876-2.986 2.53 0 4.99 1.032 6.877 2.986l.032.033h2.767l-.11-.16z" id="path-2" class="cls-4"/></g></svg>