<svg xmlns="http://www.w3.org/2000/svg" preserveAspectRatio="xMidYMid" width="60" height="15" viewBox="0 0 60 15"><defs><style>.cls-2 { fill: #878d92; }</style></defs><path d="M59.626 3.95L45.25 3.935l.393-3.877L57.973.05c.87 0 1.4.698 1.622 1.308.223.61.118 2.08.03 2.592zM48.522 14.663h-4.635L45.034 5.7h4.636l-1.148 8.963zM15.095 3.95c.06-1.12.39-2.208 1.308-3.005.85-.66 1.414-.87 2.127-.872L42.59.066c2.144 0 1.83 3.21 1.72 3.87l-29.215.013zm13.71 6.264c-.345 2.664-.463 4.44-1.893 4.44l-1.24.01h-11.84l.453-3.74 9.41.005c.767.008.61-1.848.61-1.848L16.36 9.07c-.874 0-1.65-1.146-1.607-1.96l.117-1.41h12.265c2.066.004 2.097 1.25 1.674 4.514zM1.446 3.95c.008.007.558-3.962.558-3.962l12.657.01-.472 3.93-12.743.02zm12.038 5.126l-7.908.014-.288 1.842h7.995l-.468 3.73H0L1.214 5.7h12.68l-.412 3.376zM44.1 5.7c-.104.628-.434 3.303-2.248 3.303l-7.21.003-.78 5.657h-4.68l1.1-8.963H44.1zm15.333 0l-1.07 8.963H53.8L54.853 5.7h4.58z" id="path-1" class="cls-2" fill-rule="evenodd"/></svg>