<svg xmlns="http://www.w3.org/2000/svg" preserveAspectRatio="xMidYMid" width="190" height="130" viewBox="0 0 190 130"><defs><style>.cls-3 { fill: #8d9ba6; opacity: 0.6; } .cls-4 { fill: #8d9ba6; fill-opacity: 0.1; } .cls-5 { fill: #30a763; opacity: 0.4; } .cls-6 { fill: #8d9ba6; } .cls-8 { fill: #8d9ba6; opacity: 0.5; } .cls-9 { fill: #30a763; } .cls-12 { fill: #ffffff; stroke: #30a763; stroke-linejoin: round; stroke-width: 2px; filter: url(#outer-glow-1); }</style><filter id="outer-glow-1" filterUnits="userSpaceOnUse"><feGaussianBlur stdDeviation="1" in="SourceAlpha"/><feComposite/><feComposite/><feComposite result="outerGlowBlur"/><feFlood flood-color="#fff" flood-opacity="1"/><feComposite operator="in" in2="outerGlowBlur"/><feComposite in="SourceGraphic" result="outerGlow"/></filter></defs><g id="illustration-managesvg"><path d="M187 130H3c-1.657 0-3-1.343-3-3V3c0-1.657 1.343-3 3-3h184c1.657 0 3 1.343 3 3v124c0 1.657-1.343 3-3 3zm1-127c0-.552-.448-1-1-1H3c-.552 0-1 .448-1 1v124c0 .552.448 1 1 1h184c.552 0 1-.448 1-1V3z" id="path-1" class="cls-3" fill-rule="evenodd"/><path id="rect-1" class="cls-4" d="M2 2h20v126H2z"/><path d="M35 86V26h144v60H35zm142-58H37v56h140V28z" id="path-2" class="cls-5" fill-rule="evenodd"/><path d="M61 15v-2h12v2H61zm-26-2h22v2H35v-2z" id="path-3" class="cls-6" fill-rule="evenodd"/><path d="M167 100v-2h12v2h-12zm-22-2h12v2h-12v-2zm-22 0h12v2h-12v-2zm-22 0h12v2h-12v-2zm-66 0h22v2H35v-2z" id="path-4" class="cls-6" fill-rule="evenodd"/><path d="M167 118v-2h12v2h-12zm0-8h12v2h-12v-2zm0-6h12v2h-12v-2zm0-91h12v2h-12v-2zm-16 0h12v2h-12v-2zm6 93h-12v-2h12v2zm-24-93h12v2h-12v-2zm2 93h-12v-2h12v2zm-34 10h12v2h-12v-2zm0-6h12v2h-12v-2zm0-6h12v2h-12v-2zm-60 6h42v2H41v-2zm0-6h32v2H41v-2zm-6 12h2v2h-2v-2zm0-6h2v2h-2v-2zm0-6h2v2h-2v-2zm42 14H41v-2h36v2zm58-6h-12v-2h12v2zm0 6h-12v-2h12v2zm22-6h-12v-2h12v2zm0 6h-12v-2h12v2z" id="path-5" class="cls-8" fill-rule="evenodd"/><path d="M52 56h-2v-2h2l14-4h2l14 14h2l14-9h2l14 4h2l14-10h2l14 20h2l14-10h2v2h-2l-14 10h-2l-14-20h-2l-14 10h-2l-14-4h-2l-14 9h-2L68 52h-2l-14 4z" id="path-6" class="cls-9" fill-rule="evenodd"/><path d="M22 128V2h2v126h-2zM2 116h20v2H2v-2zm0-74h20v2H2v-2zm0-10h20v2H2v-2zm0-10h20v2H2v-2zm0-10h20v2H2v-2z" id="path-7" class="cls-8" fill-rule="evenodd"/><g id="line"><circle id="circle-1" class="cls-12" cx="51" cy="55" r="1"/><circle id="circle-2" class="cls-12" cx="83" cy="65" r="1"/><circle id="circle-3" class="cls-12" cx="99" cy="56" r="1"/><circle id="circle-4" class="cls-12" cx="115" cy="60" r="1"/><circle id="circle-5" class="cls-12" cx="131" cy="50" r="1"/><circle id="circle-6" class="cls-12" cx="147" cy="70" r="1"/><circle id="circle-7" class="cls-12" cx="163" cy="60" r="1"/><circle id="circle-8" class="cls-12" cx="67" cy="51" r="1"/></g></g></svg>