<svg xmlns="http://www.w3.org/2000/svg" preserveAspectRatio="xMidYMid" width="190" height="130" viewBox="0 0 190 130"><defs><style>.cls-3 { fill: #667580; opacity: 0.25; } .cls-4 { fill: #667580; opacity: 0.6; } .cls-5 { fill: #30a763; } .cls-11 { fill: #667580; fill-opacity: 0.1; } .cls-14 { fill: #ffffff; }</style></defs><g id="illustration-managesvg"><path d="M131.977 41.165l26.317-16.386c.225.4.46.795.715 1.177L132.712 42.33c-.237-.394-.487-.78-.736-1.165zm27.032 62.878c-.255.382-.49.776-.716 1.178l-26.317-16.385c.25-.386.5-.77.736-1.164l26.296 16.373zm-128.02 0L57.288 87.67c.237.394.487.78.736 1.165L31.706 105.22c-.225-.4-.46-.795-.715-1.177zm0-78.086c.255-.382.49-.776.716-1.178l26.317 16.385c-.25.386-.5.77-.736 1.164L30.99 25.956z" id="path-1" class="cls-3" fill-rule="evenodd"/><path d="M16 32C7.163 32 0 24.837 0 16S7.163 0 16 0s16 7.163 16 16-7.163 16-16 16zm0-30C8.268 2 2 8.268 2 16s6.268 14 14 14 14-6.268 14-14S23.732 2 16 2z" id="path-2" class="cls-4" fill-rule="evenodd"/><path d="M22 17h-5v5h-2v-5h-5v-2h5v-5h2v5h5v2z" id="path-3" class="cls-5" fill-rule="evenodd"/><path d="M179 16h-1l-3-2.25V22h-2v-8.25L170 16h-1v-1l5-5 1 1 4 4v1z" id="path-4" class="cls-5" fill-rule="evenodd"/><path d="M174 32c-8.837 0-16-7.163-16-16s7.163-16 16-16 16 7.163 16 16-7.163 16-16 16zm0-30c-7.732 0-14 6.268-14 14s6.268 14 14 14 14-6.268 14-14-6.268-14-14-14z" id="path-5" class="cls-4" fill-rule="evenodd"/><path d="M174 130c-8.837 0-16-7.163-16-16s7.163-16 16-16 16 7.163 16 16-7.163 16-16 16zm0-30c-7.732 0-14 6.268-14 14s6.268 14 14 14 14-6.268 14-14-6.268-14-14-14z" id="path-6" class="cls-4" fill-rule="evenodd"/><path d="M173 121h2v-2c1.825-.183 3.004-1.573 3.004-3.146v-.028c0-1.573-.817-2.43-3.018-3.005v-2.133c.593.154 1.09.45 1.67.828l.97-1.643c-.796-.533-1.665-.898-2.693-1.024v-1.857h-1.912v1.815c-1.824.183-3.04 1.208-3.04 2.752v.028c0 1.556 1.18 2.32 3.035 2.86 0 1.203-.007 1.557-.007 2.587-.676-.202-1.22-.554-1.87-1.03l-1.13 1.6c.957.702 1.767 1.18 3.013 1.334L173 121zm3.014-5.062v.028c0 .506-.348 1.144-1.028 1.243v-2.31c.782.28 1.028.575 1.028 1.038zm-4.045-4.48v-.027c0-.448.29-.785.998-.87v1.91c-.796-.28-1-.562-1-1.01z" id="path-7" class="cls-5" fill-rule="evenodd"/><path d="M16 130c-8.837 0-16-7.163-16-16s7.163-16 16-16 16 7.163 16 16-7.163 16-16 16zm0-30c-7.732 0-14 6.268-14 14s6.268 14 14 14 14-6.268 14-14-6.268-14-14-14z" id="path-8" class="cls-4" fill-rule="evenodd"/><circle id="circle-1" class="cls-11" cx="95" cy="65" r="41"/><path d="M95 107c-23.196 0-42-18.804-42-42s18.804-42 42-42 42 18.804 42 42-18.804 42-42 42zm0-82c-22.09 0-40 17.91-40 40s17.91 40 40 40 40-17.91 40-40-17.91-40-40-40z" id="path-9" class="cls-4" fill-rule="evenodd"/><path d="M118.285 76.86c-13.206-5.106-15.893-7.298-16.283-8.082v-1.794c1.502-1.642 2.33-3.797 3.07-6.275 1.098-.91 1.745-2.28 1.745-3.738 0-.997-.3-1.946-.875-2.766v-4.984c0-6.508-3.44-10.24-10.453-10.24-6.913 0-10.54 3.828-10.54 10.24v4.986c-.573.82-.874 1.768-.874 2.764 0 1.456.646 2.826 1.744 3.735.74 2.48 1.66 4.635 3.164 6.277v1.794c-.388.782-3.084 2.97-16.294 8.08-1.02.4-1.707 1.406-1.707 2.51v5.938c0 1.482 1.193 2.686 2.66 2.686h43.69c1.467 0 2.66-1.204 2.66-2.686v-5.94c0-1.106-.686-2.113-1.708-2.507zm-.28 8.446c0 .384-.302.697-.672.697h-43.69c-.37 0-.67-.313-.67-.697v-5.94c0-.288.175-.55.436-.65 14.35-5.553 17.033-7.896 17.52-9.456.03-.096.044-.196.044-.296V66.59c0-.26-.102-.51-.284-.696-1.473-1.506-2.363-3.596-3.047-6.045-.062-.222-.198-.414-.385-.546-.747-.526-1.192-1.398-1.192-2.332 0-.83.354-1.44.65-1.805.144-.177.223-.4.223-.627v-5.318c0-5.32 2.713-8.25 8.55-8.25 5.918 0 8.463 2.853 8.463 8.25v5.316c0 .228.078.45.222.627.298.367.653.978.653 1.807 0 .935-.446 1.807-1.194 2.332-.188.132-.324.325-.386.547-.684 2.45-1.48 4.54-2.95 6.044-.183.185-.285.435-.285.695v2.374c0 .1.015.2.045.296.488 1.564 3.16 3.91 17.51 9.456.262.1.436.36.436.65v5.94z" id="path-10" class="cls-5" fill-rule="evenodd"/><path d="M118.004 85.306c0 .384-.3.697-.67.697h-43.69c-.37 0-.672-.313-.672-.697v-5.94c0-.288.176-.55.437-.65 14.35-5.553 17.033-7.896 17.52-9.456.03-.096.044-.196.044-.296V66.59c0-.26-.102-.51-.284-.696-1.473-1.506-2.363-3.596-3.047-6.045-.062-.222-.198-.414-.385-.546-.747-.526-1.192-1.398-1.192-2.332 0-.83.354-1.44.65-1.805.144-.177.223-.4.223-.627v-5.318c0-5.32 2.713-8.25 8.55-8.25 5.918 0 8.463 2.853 8.463 8.25v5.316c0 .228.078.45.222.627.298.367.653.978.653 1.807 0 .935-.446 1.807-1.194 2.332-.188.132-.324.325-.386.547-.684 2.45-1.48 4.54-2.95 6.044-.183.185-.285.435-.285.695v2.374c0 .1.015.2.045.296.488 1.564 3.16 3.91 17.51 9.456.262.1.436.36.436.65v5.94z" id="path-11" class="cls-14" fill-rule="evenodd"/><path id="rect-1" class="cls-5" d="M10 113h12v2H10z"/></g></svg>