<svg xmlns="http://www.w3.org/2000/svg" preserveAspectRatio="xMidYMid" width="190" height="130" viewBox="0 0 190 130"><defs><style>.cls-4 { fill: #8d9ba6; opacity: 0.6; } .cls-5 { fill: #8d9ba6; opacity: 0.1; } .cls-6 { fill: #30a763; } .cls-7 { fill: #30a763; opacity: 0.25; } .cls-9 { fill: #8d9ba6; opacity: 0.5; } .cls-12 { fill: #8d9ba6; }</style></defs><g id="illustration-sellsvg"><g id="group-1"><path d="M128.5 130h-67c-.828 0-1.5-.672-1.5-1.5V1.5c0-.828.672-1.5 1.5-1.5h67c.828 0 1.5.672 1.5 1.5v127c0 .828-.672 1.5-1.5 1.5zM128 3c0-.552-.448-1-1-1H63c-.552 0-1 .448-1 1v124c0 .552.448 1 1 1h64c.552 0 1-.448 1-1V3z" id="path-1" class="cls-4" fill-rule="evenodd"/><path id="rect-1" class="cls-5" d="M62 80h66v48H62z"/><path d="M93.988 36.988h2.007v-2.11c3.274-.215 6.022-2.525 6.022-5.408v-.054c0-2.72-2.088-4.283-6.037-5.226v-6.284c1.377.242 2.207.49 3.454 1.596l1.117-1.617c-1.506-1.212-2.606-1.623-4.555-1.81L96 14h-2l-.012 2.02c-3.195.162-6.018 1.838-6.018 4.613v.054c0 2.802 2.19 4.284 6.034 5.227v7.08c-1.95-.217-3.482-1.45-5.04-2.904l-1.17 1.616c1.82 1.617 3.882 2.903 6.194 3.12v2.162zm.016-13.176c-2.858-.754-4.034-1.75-4.034-3.26V20.5c0-1.645 1.85-2.594 4.034-2.675v5.987zm2.007 9.262V26.29c2.885.728 4.007 1.67 4.007 3.26v.055c0 1.75-1.798 3.36-4.006 3.47z" id="path-2" class="cls-6" fill-rule="evenodd"/><path d="M119 67H71c-.552 0-1-.448-1-1V50c0-.552.448-1 1-1h48c.552 0 1 .448 1 1v16c0 .552-.448 1-1 1zm-1-16H72v14h46V51z" id="path-3" class="cls-7" fill-rule="evenodd"/><path d="M101 55.517L92.663 62l-.052-.052-1.456-1.466L89 58.316l1.595-1.394 2.154 2.165L99.49 54l1.51 1.517z" id="path-4" class="cls-6" fill-rule="evenodd"/><path id="rect-2" class="cls-9" d="M62 80h66v2H62z"/><path id="rect-3" class="cls-9" d="M62 104h66v2H62z"/><path d="M79 94v-2h41v2H79zm31 4H79v-2h31v2z" id="path-5" class="cls-9" fill-rule="evenodd"/><path d="M79 114v-2h22v2H79zm0-26h22v2H79v-2zm-6 30c-1.657 0-3-1.343-3-3s1.343-3 3-3 3 1.343 3 3-1.343 3-3 3zm0-4c-.552 0-1 .448-1 1s.448 1 1 1 1-.448 1-1-.448-1-1-1zm0-20c-1.657 0-3-1.343-3-3s1.343-3 3-3 3 1.343 3 3-1.343 3-3 3zm0-4c-.552 0-1 .448-1 1s.448 1 1 1 1-.448 1-1-.448-1-1-1z" id="path-6" class="cls-12" fill-rule="evenodd"/><path d="M79 118v-2h41v2H79zm31 4H79v-2h31v2z" id="path-7" class="cls-9" fill-rule="evenodd"/></g><g id="group-1-1"><path d="M188.5 122H134v-2h53c.552 0 1-.448 1-1V11c0-.552-.448-1-1-1h-53V8h54.5c.828 0 1.5.67 1.5 1.5v111c0 .828-.672 1.5-1.5 1.5z" id="path-8" class="cls-4" fill-rule="evenodd"/><path id="rect-4" class="cls-5" d="M134 78h54v42h-54z"/><path d="M159.227 41.99h1.69v-1.835c2.757-.187 5.07-2.196 5.07-4.703v-.047c0-2.366-1.758-3.725-5.083-4.544v-5.464c1.16.21 1.86.428 2.91 1.388l.94-1.405c-1.27-1.056-2.196-1.413-3.837-1.577L160.92 22h-1.683l-.01 1.756c-2.69.14-5.068 1.6-5.068 4.012v.047c0 2.436 1.842 3.725 5.08 4.545v6.156c-1.64-.188-2.932-1.26-4.244-2.525l-.985 1.407c1.533 1.405 3.27 2.524 5.217 2.71v1.882zm.013-11.457c-2.407-.656-3.397-1.523-3.397-2.835v-.047c0-1.428 1.56-2.254 3.397-2.324v5.207zm1.69 8.053v-5.898c2.43.632 3.374 1.452 3.374 2.834v.047c0 1.522-1.514 2.922-3.374 3.016z" id="path-9" class="cls-6" fill-rule="evenodd"/><path d="M179 66h-38c-.552 0-1-.448-1-1V51c0-.552.448-1 1-1h38c.552 0 1 .448 1 1v14c0 .552-.448 1-1 1zm-1-14h-36v12h36V52z" id="path-10" class="cls-7" fill-rule="evenodd"/><path d="M166 55.517L157.663 62l-.052-.052-1.456-1.466L154 58.316l1.595-1.394 2.154 2.165L164.49 54l1.51 1.517z" id="path-11" class="cls-6" fill-rule="evenodd"/><path id="rect-5" class="cls-9" d="M134 76h54v2h-54z"/><path id="rect-6" class="cls-9" d="M134 98h54v2h-54z"/><path id="rect-7" class="cls-12" d="M149 85h18v2h-18z"/><path d="M143 91c-1.657 0-3-1.343-3-3s1.343-3 3-3 3 1.343 3 3-1.343 3-3 3zm0-4c-.552 0-1 .448-1 1s.448 1 1 1 1-.448 1-1-.448-1-1-1z" id="path-12" class="cls-12" fill-rule="evenodd"/><path id="rect-8" class="cls-9" d="M149 89h31v2h-31z"/><path id="rect-9" class="cls-12" d="M149 107h18v2h-18z"/><path d="M143 113c-1.657 0-3-1.343-3-3s1.343-3 3-3 3 1.343 3 3-1.343 3-3 3zm0-4c-.552 0-1 .448-1 1s.448 1 1 1 1-.448 1-1-.448-1-1-1z" id="path-13" class="cls-12" fill-rule="evenodd"/><path id="rect-10" class="cls-9" d="M149 111h31v2h-31z"/></g><g id="group-1-2"><path d="M1.5 122H56v-2H3c-.552 0-1-.448-1-1V11c0-.552.448-1 1-1h53V8H1.5C.672 8 0 8.67 0 9.5v111c0 .828.672 1.5 1.5 1.5z" id="path-14" class="cls-4" fill-rule="evenodd"/><path id="rect-11" class="cls-5" d="M2 78h54v42H2z"/><path d="M29.227 41.99h1.69v-1.835c2.757-.187 5.07-2.196 5.07-4.703v-.047c0-2.366-1.758-3.725-5.083-4.544v-5.464c1.16.21 1.86.428 2.91 1.388l.94-1.405c-1.27-1.056-2.196-1.413-3.837-1.577L30.92 22h-1.683l-.01 1.756c-2.69.14-5.068 1.6-5.068 4.012v.047c0 2.436 1.842 3.725 5.08 4.545v6.156c-1.64-.188-2.932-1.26-4.244-2.525l-.985 1.407c1.533 1.405 3.27 2.524 5.217 2.71v1.882zm.013-11.457c-2.407-.656-3.396-1.523-3.396-2.835v-.047c0-1.428 1.558-2.254 3.396-2.324v5.207zm1.69 8.053v-5.898c2.43.632 3.374 1.452 3.374 2.834v.047c0 1.522-1.514 2.922-3.374 3.016z" id="path-15" class="cls-6" fill-rule="evenodd"/><path d="M49 66H11c-.552 0-1-.448-1-1V51c0-.552.448-1 1-1h38c.552 0 1 .448 1 1v14c0 .552-.448 1-1 1zm-1-14H12v12h36V52z" id="path-16" class="cls-7" fill-rule="evenodd"/><path d="M36 55.517L27.663 62l-.052-.052-1.456-1.466L24 58.316l1.595-1.394 2.154 2.165L34.49 54 36 55.516z" id="path-17" class="cls-6" fill-rule="evenodd"/><path d="M2 100v-2h54v2H2zm0-24h54v2H2v-2z" id="path-18" class="cls-9" fill-rule="evenodd"/><path d="M19 87v-2h18v2H19zm18 22H19v-2h18v2zm-24 4c-1.657 0-3-1.343-3-3s1.343-3 3-3 3 1.343 3 3-1.343 3-3 3zm0-4c-.552 0-1 .448-1 1s.448 1 1 1 1-.448 1-1-.448-1-1-1zm0-18c-1.657 0-3-1.343-3-3s1.343-3 3-3 3 1.343 3 3-1.343 3-3 3zm0-4c-.552 0-1 .448-1 1s.448 1 1 1 1-.448 1-1-.448-1-1-1z" id="path-19" class="cls-12" fill-rule="evenodd"/><path d="M19 113v-2h31v2H19zm0-24h31v2H19v-2z" id="path-20" class="cls-9" fill-rule="evenodd"/></g></g></svg>