<svg xmlns="http://www.w3.org/2000/svg" preserveAspectRatio="xMidYMid" width="83" height="24" viewBox="0 0 83 24"><defs><style>.cls-3 { fill: #222526; } .cls-6 { fill: #abb3c9; } .cls-7 { fill: #10313f; } .cls-8 { fill: #b4bfd1; } .cls-10 { fill: #143b4c; } .cls-11 { fill: #d6dce6; } .cls-12 { fill: #99a0ba; } .cls-15 { fill: #61b9e8; } .cls-16 { fill: #4baad3; } .cls-17 { fill: #0d252c; } .cls-19 { fill: #0b0b0b; } .cls-20 { fill: #ffffff; } .cls-21 { fill: #525365; }</style></defs><g id="logotypesvg" fill-rule="evenodd"><path d="M77.536 13.93v-2.388h5.45v5.46c-1.29 1.096-3.065 1.994-5.36 1.994-3.91 0-6.6-2.748-6.6-6.466v-.036c0-3.575 2.78-6.503 6.582-6.503 2.26 0 3.622.612 4.93 1.726l-1.738 2.1c-.97-.807-1.83-1.274-3.282-1.274-2.008 0-3.605 1.778-3.605 3.916v.036c0 2.3 1.58 3.987 3.802 3.987 1.004 0 1.9-.25 2.6-.753V13.93h-2.78zm-17.75-3.143v7.993h-2.725V6.207h2.548l5.88 7.742V6.206h2.727V18.78h-2.35l-6.078-7.993zm-12.225 8.21c-3.872 0-6.652-2.893-6.652-6.467v-.036c0-3.575 2.816-6.503 6.69-6.503 3.873 0 6.652 2.893 6.652 6.468v.036c0 3.574-2.815 6.502-6.69 6.502zm3.803-6.503c0-2.156-1.578-3.952-3.802-3.952-2.222 0-3.764 1.76-3.764 3.916v.036c0 2.155 1.578 3.95 3.8 3.95 2.225 0 3.767-1.76 3.767-3.914v-.036zM37.11 18.78l-3.89-5.352-1.454 1.51v3.842h-2.76V6.207h2.76v5.496l5.093-5.496h3.335l-5.11 5.335 5.343 7.238H37.11z" id="path-1" class="cls-3"/><g id="jason-head"><g id="bg"><path d="M18.898 14.75l-.068-.003-.004-.054c-.013-.176-.268-.65-.365-.818l-.047-.083.282-.022c-.232-.302-.286-.636-.148-.93.124-.263.394-.454.64-.454.033.002.648.066.617 1.224-.03 1.108-.817 1.14-.906 1.14zm-3.44-.296c-.01.018-.02.036-.032.053-.125.264-.273.62-.402.943.706-.183 2.1-.33.987 2.987-.313.935-1.207 1.73-2.494 2.246.157.03.334.07.524.123-1.082.28-2.515.52-4.262.534l.127-.027c-2.667-.002-5.582-.89-6.088-2.876-.395-1.55 1.335-2.89 1.352-2.903l.067-.05S3.11 15.26 3.01 13.357c-.1-1.9.96-1.86 1.523-2.975.563-1.116 2.12-.447 3.948-.498 1.83-.052 1.982.21 3.668-.128 1.685-.34 3.746.88 4.773 2.315 1 1.394-1.074 1.79-1.463 2.382zm-13.92-.58c-.096.17-.35.643-.364.82l-.004.053-.068.003c-.09 0-.877-.032-.906-1.14-.03-1.158.584-1.222.61-1.224.253 0 .523.19.647.454.138.294.084.628-.148.93l.282.022-.048.083z" id="path-2" class="cls-6"/><path d="M19.213 12.2h-.022c-.058 0-.118.01-.177.025v-.122h.005c.13-.996.183-1.9.162-2.718 0-5.874-5.04-7.945-5.04-7.945v.507c-.884-.72-1.735-1.27-1.735-1.27v.832c-.168-.102-.326-.193-.474-.276-.438-.3-1.078-.763-1.408-1.13l-.45 1.234L9.735.226C9.606.616 8.48 1.334 8.48 1.334 8.485.82 8.33 0 8.33 0L6.072 1.845l-.214-.676s-1.148.746-1.823 1.555v-.392S.66 4.6.66 9.168v.028c-.037.625-.027 1.297.033 2.022.038.845.094.885.094.885v.098c-.034.004-.82.084-.786 1.417.022.81.436 1.16.804 1.274.018.606.39 6.743 8.095 7.225h2.18c7.675-.48 8.072-6.575 8.093-7.217.374-.107.805-.453.826-1.28.034-1.334-.753-1.414-.787-1.417zM1.107 14.693H1.1c-.084 0-.816-.03-.844-1.082-.03-1.115.553-1.163.553-1.163.43 0 1.006.673.367 1.377l.303.024s-.355.616-.373.844zm14.807-1.563c-.064 1.34-1.3 2.325-1.31 2.334l-.068.054.068.05c.017.014 1.35.72.954 2.27-.506 1.993-2.97 3.012-5.638 3.012-2.67 0-5.133-1.02-5.64-3.01-.395-1.553.938-2.258.955-2.27l.068-.052-.067-.054c-.012-.01-1.247-.993-1.31-2.335-.04-.774.318-1.52 1.056-2.218.5-.472 1.17-.71 1.995-.71 1.254 0 2.464.552 2.943.843.478-.29 1.688-.843 2.942-.843.824 0 1.495.238 1.995.71.738.697 1.095 1.444 1.057 2.217zm3.83.48c-.028 1.053-.76 1.082-.843 1.082h-.007c-.018-.228-.374-.844-.374-.844l.303-.024c-.64-.704-.064-1.377.368-1.377 0 0 .583.048.554 1.163z" id="path-3" class="cls-7"/><path d="M14.284 17.154c0 1.3-1.918 2.356-4.284 2.356-2.366 0-4.284-1.055-4.284-2.356 0-1.3 1.918-2.356 4.284-2.356 2.366 0 4.284 1.055 4.284 2.356z" id="path-4" class="cls-8"/></g><g id="details"><path d="M3.55 10.153c.557-.502 1.18-.903 1.93-1.08 1.087-.255 2.237-.068 3.27.298.355.126.702.27 1.032.445.205.11.214.152.422.04.66-.36 1.39-.622 2.134-.774.88-.18 1.826-.19 2.676.124 1.032.38 1.675 1.11 2.318 1.936-.435-1.007-1.075-1.866-2.106-2.374-.816-.403-1.768-.505-2.67-.404-.804.09-1.59.317-2.318.65-.197.09-.222.09-.418 0-.182-.084-.367-.16-.555-.23-.413-.15-.84-.272-1.274-.35-.97-.175-2.002-.153-2.92.224-1.152.47-1.88 1.404-2.344 2.484.265-.34.523-.674.824-.987z" id="path-5" class="cls-10"/><path d="M10.74 15.923c-.333 0-.694-.136-.83-.192-.136.057-.497.193-.83.193-.417 0-1.097-.226-1.097-.226s-.346-.535.182-1.05c.48-.467 1.705.118 1.705.118h.08s1.176-.533 1.705-.117c.583.457.18 1.05.18 1.05s-.678.225-1.096.225zm2.22 2.313s-1 .775-2.99.775c-1.99 0-2.99-.774-2.99-.774s1.146.403 3.008.403 2.973-.404 2.973-.404z" id="path-6" class="cls-11"/><path d="M15.61 12.98c-1.394-2.948-5.696-1.21-5.696-1.21s-4.302-1.738-5.696 1.21c0 0-.112-1.913 2.118-2.464 1.448-.357 3.574.81 3.578.81.003 0 2.13-1.167 3.577-.81 2.23.55 2.12 2.464 2.12 2.464zm-7.793 2.007l.01.245c-.58-.014-1.104.272-1.57.565.446-.38.948-.738 1.56-.81zm5.705.81c-.475-.33-1.003-.6-1.608-.59l.01-.246c.636.076 1.15.422 1.598.837z" id="path-7" class="cls-12"/><path d="M14.655 17.708c-.042-.136-.06-.278-.102-.414l-.06.055c-.304.27-.66.49-1.03.67-.663.325-1.39.52-2.124.622-.975.136-1.986.125-2.955-.044-.698-.122-1.384-.334-2.007-.663-.334-.176-.657-.386-.93-.642-.038.136-.054.277-.092.413-.11-.175-.132-.4-.044-.586.082-.175.292-.337.503-.3-.083.058-.16.127-.224.205-.03.038-.02.038.01.066.02.02.038.038.058.055.055.05.112.095.17.14.183.14.38.266.582.378.67.37 1.422.6 2.184.718 1.05.166 2.15.148 3.192-.065.696-.142 1.38-.38 1.982-.747.172-.105.34-.22.493-.35.047-.038.092-.078.135-.12.007-.007.017-.014.022-.022.012-.018.014-.015-.004-.038-.067-.083-.153-.155-.242-.214.254-.05.52.182.56.41.03.166.014.327-.075.474zm-3.257-2.34c0 .173-.22.316-.488.316-.27 0-.49-.143-.49-.317 0-.176.22-.318.49-.318s.488.14.488.317zm.513-.157c-.04-.263-.236-.5-.5-.583-.324-.102-.686-.066-1.015-.01.305-.132.706-.2 1.03-.107.154.043.29.117.397.234.03.033.056.072.08.11.01.02.123.247.1.252.025.217-.018.434-.175.602.064-.164.11-.32.084-.497zm-2.904.474c-.27 0-.487-.143-.487-.317 0-.176.217-.318.486-.318.27 0 .488.14.488.317 0 .174-.218.317-.488.317zm-.9-.84c-.1.13-.17.275-.18.44-.008.152.037.284.09.424-.258-.28-.228-.693.014-.97.084-.08.167-.145.278-.19.132-.056.28-.075.424-.076.24 0 .5.047.717.145-.172-.03-.346-.048-.52-.05-.292-.006-.635.036-.823.277z" id="path-8" class="cls-7"/></g><g id="bowtie"><path d="M6.52 21.23s-.114-.5.807-.343c.922.157 1.94.546 1.94.546s.066-.327.632-.288c.565.038.872.334.872.334s1.325-.565 1.872-.556c.547.01.585-.13.652.074.068.204.058.37 0 .657-.057.287-.326.61-.326.805 0 .194.355 1.292-.144 1.36-.498.07-2.12-.777-2.12-.777s-.116.333-.644.333c-.527 0-.806-.222-.806-.222s-1.766.71-2.063.67c-.298-.04-.317-.337-.278-.605.038-.27.144-.75.086-.797-.057-.046-.48-1.194-.48-1.194z" id="path-9" class="cls-15"/><path d="M7.257 22.508s.045.522.476.522c.43 0 1.353-.683 1.353-.683s.615.437.948.437c.333 0 .608-.437.608-.437s1.962.29 2.486-.36c.523-.648-.122.495-.122.495s.372 1.258-.052 1.36c-.424.103-2.187-.735-2.187-.735s-.467.288-.793.282c-.325-.006-.67-.217-.67-.217s-1.93.727-2.242.595c-.31-.133-.073-1.09.195-1.26z" id="path-10" class="cls-16"/><path d="M13.622 21.033c-.028-.118-.105-.21-.223-.266-.544-.26-2.067.344-2.615.577-.174-.22-.447-.36-.754-.36s-.58.142-.754.362c-.546-.233-2.074-.838-2.618-.58-.118.057-.195.15-.223.267-.144.606.274 1.3.426 1.527-.084.238-.277.883-.042 1.274.07.116.212.166.4.166.506 0 1.35-.352 2.096-.718.174.193.43.317.717.317.304 0 .573-.14.748-.353.74.383 1.58.75 2.076.75.18 0 .316-.05.385-.163.234-.39.04-1.036-.044-1.274.152-.226.57-.92.426-1.527zm-6.506 2.633c-.162-.27.02-.877.098-1.068l.034-.084-.055-.074c-.156-.21-.535-.855-.422-1.332.005-.014.01-.027.04-.042.315-.15 1.488.23 2.31.577-.027.083-.04.17-.04.26v.776c0 .11.02.215.058.313-.947.46-1.873.77-2.022.673zm3.52-.987c0 .322-.27.585-.605.585-.334 0-.606-.263-.606-.586v-.777c0-.324.272-.587.607-.587.335 0 .607.263.607.587v.776zm2.207-.082c.078.19.26.797.105 1.06-.156.098-1.075-.228-2.01-.706.03-.086.044-.178.044-.273v-.777c0-.09-.014-.18-.04-.26.82-.348 1.99-.726 2.305-.577.03.015.036.028.04.042.135.573-.417 1.325-.423 1.332l-.055.074.033.084z" id="path-11" class="cls-17"/></g><g id="eyes"><path d="M13.435 14.008c-.09.192-.248.326-.442.376-.018.005-.035.01-.052.012-.38.07-.772-.203-.892-.617-.06-.21-.047-.426.04-.61.09-.19.25-.324.443-.374.397-.106.82.17.946.605.06.21.047.425-.04.608zm-6.353.398c-.018-.003-.035-.005-.053-.01-.38-.08-.624-.48-.56-.905.03-.214.135-.407.292-.54.163-.14.362-.204.563-.176.407.055.678.47.612.915-.067.45-.45.772-.855.716z" id="path-12" class="cls-19"/><path d="M12.892 13.446c-.146.027-.287-.064-.314-.204-.027-.14.07-.274.215-.3.146-.028.286.063.314.203.027.14-.07.274-.215.3zm-5.502.045c-.145-.03-.236-.17-.204-.308.033-.14.176-.225.32-.193.146.03.237.17.205.308-.032.138-.176.225-.32.193z" id="path-13" class="cls-20"/><path d="M13.19 13.997c-.007.02-.067.17-.275.174-.037.003-.072 0-.104-.005h-.003l-.036-.006c-.002-.002-.006-.002-.01-.003l-.035-.01c-.003 0-.004 0-.006-.002-.333-.1-.43-.47-.43-.47.01.015.025.028.038.042.326.368.863.276.863.276v.004zm-6.073.17c-.035-.013-.065-.03-.093-.046l-.033-.02-.01-.007c-.016-.01-.03-.024-.045-.038-.002 0-.004-.002-.006-.005l-.005-.005c-.01-.007-.018-.016-.025-.026-.206-.223-.15-.55-.15-.55l.015.054c.147.462.68.587.68.587l-.003.003c-.008.008-.126.132-.325.054z" id="path-14" class="cls-21"/></g></g></g></svg>