<svg xmlns="http://www.w3.org/2000/svg" preserveAspectRatio="xMidYMid" width="920" height="330" viewBox="0 0 920 330"><defs><style>.cls-4 { fill: #dee0e0; } .cls-7 { fill: #ffffff; } .cls-11 { fill: #49504e; } .cls-15 { fill: #23ab5f; } .cls-18 { fill: #8d9ba6; opacity: 0.5; } .cls-22 { fill: #49504e; opacity: 0.25; }</style></defs><g id="mapsvg"><g id="arrows" fill-rule="evenodd"><path d="M800 171h-1v-1l5.6-4H559l-1-.97 1-1.03h245.6l-5.6-4v-1h1l7 5v2l-7 5zM705 71v-1l5.59-3.994c-42.337.14-63.754 21.43-84.46 42.03C607.535 126.532 589.975 144 559 144v-2c30.15 0 47.427-17.186 65.718-35.38 21-20.89 42.716-42.482 85.89-42.614L705 60v-1h1l7 5v2l-7 5h-1zm-78.87 150.963c20.706 20.6 42.123 41.892 84.46 42.03L705 260v-1h1l7 5v2l-7 5h-1v-1l5.61-4.006c-43.176-.132-64.893-21.724-85.892-42.613C606.428 205.187 589.15 188 559 188v-2c30.976 0 48.536 17.47 67.13 35.963z" id="path-1" class="cls-4"/><path d="M356 171h-1v-1l5.6-4H115v-2h245.6l-5.6-4v-1h1l7 5v2l-7 5zm-2-22v-1l5.634-4.024c-30.123-.51-47.447-17.72-65.763-35.94C273.097 87.37 251.614 66 209 66v-2c43.438 0 65.22 21.666 86.282 42.62 17.997 17.9 35.02 34.814 64.282 35.354L354 138v-1h1l7 5v2l-7 5h-1zm-60.13 72.963c18.317-18.22 35.64-35.43 65.764-35.94L354 182v-1h1l7 5v2l-7 5h-1v-1l5.564-3.974c-29.26.54-46.285 17.453-64.282 35.355C274.22 244.335 252.438 266 209 266v-2c42.613 0 64.096-21.37 84.87-42.037z" id="path-2" class="cls-4"/></g><g id="server"><path id="rect-1" class="cls-7" d="M372 91h176v34H372z"/><path id="rect-2" class="cls-7" d="M372 129h176v34H372z"/><path id="rect-3" class="cls-7" d="M372 167h176v34H372z"/><path id="rect-4" class="cls-7" d="M372 205h176v34H372z"/><path d="M470.283 113v-8.52h1.485v7.185h3.375l.21 1.335h-5.07zm-4.695-1.11c.885 0 1.695-.315 2.4-.795l.195 1.32c-.705.45-1.65.75-2.685.75-2.625 0-4.23-1.785-4.23-4.395 0-2.655 1.65-4.455 4.23-4.455 1.08 0 1.875.24 2.55.66l-.24 1.41c-.63-.465-1.335-.78-2.25-.78-1.68 0-2.76 1.155-2.76 3.15 0 1.965 1.125 3.135 2.79 3.135zm-7.935-1.05h-3.9l-.825 2.16h-1.515l3.51-8.61h1.65l3.465 8.43-1.485.33-.9-2.31zm-1.935-5.025l-1.455 3.72h2.895l-1.44-3.72z" id="path-3" class="cls-11" fill-rule="evenodd"/><path d="M496.173 143.605c-.96 0-1.514.435-1.514.99 0 .66.464.915 1.858 1.41 1.98.705 2.67 1.275 2.67 2.61 0 1.47-1.29 2.505-3.225 2.505-1.14 0-2.13-.27-3-.645l.21-1.335c.81.42 1.95.75 2.865.75 1.095 0 1.77-.495 1.77-1.17 0-.69-.465-.975-1.77-1.425-1.92-.69-2.774-1.23-2.774-2.565 0-1.365 1.215-2.37 2.94-2.37 1.02 0 1.904.225 2.55.51l-.226 1.38c-.765-.405-1.56-.645-2.355-.645zm-7.245 6.285c.885 0 1.695-.315 2.4-.795l.195 1.32c-.705.45-1.65.75-2.685.75-2.624 0-4.23-1.785-4.23-4.395 0-2.655 1.65-4.455 4.23-4.455 1.08 0 1.875.24 2.55.66l-.24 1.41c-.63-.465-1.335-.78-2.25-.78-1.68 0-2.76 1.155-2.76 3.15 0 1.965 1.126 3.135 2.79 3.135zm-8.084-7.41h1.5V151h-1.5v-8.52zm-4.77 8.52h-1.5v-7.185h-2.865v-1.335h7.168l.195 1.335h-3V151zm-8.46 0h-1.5v-3.3l-3.195-5.04 1.53-.33 2.443 4.05 2.325-3.9h1.665l-3.27 5.205V151zm-10.426-8.52h1.485v7.185h3.375l.21 1.335h-5.07v-8.52zm-4.17 6.36h-3.9l-.825 2.16h-1.515l3.51-8.61h1.65l3.465 8.43-1.485.33-.9-2.31zm-1.935-5.025l-1.455 3.72h2.895l-1.44-3.72zm-11.91.87V151h-1.35v-8.52h1.5l4.32 6.06v-6.06h1.35V151h-1.305l-4.515-6.315zm-5.52 4.155h-3.9l-.825 2.16h-1.515l3.51-8.61h1.65l3.465 8.43-1.485.33-.9-2.31zm-1.935-5.025l-1.455 3.72h2.895l-1.44-3.72z" id="path-4" class="cls-11" fill-rule="evenodd"/><path d="M483.163 185.58l-.21-1.29h3.57v4.02c-.855.525-1.95.855-3.15.855-2.82 0-4.38-1.785-4.38-4.395 0-2.655 1.65-4.455 4.35-4.455 1.155 0 2.025.27 2.73.705l-.21 1.425c-.69-.48-1.5-.84-2.505-.84-1.845 0-2.835 1.245-2.835 3.15 0 1.905.99 3.165 2.91 3.165.72 0 1.215-.135 1.68-.375v-1.965h-1.95zm-12.195-2.895V189h-1.35v-8.52h1.5l4.32 6.06v-6.06h1.35V189h-1.305l-4.515-6.315zm-5.61-2.205h1.5V189h-1.5v-8.52zm-7.14 0h1.485v7.185h3.375l.21 1.335h-5.07v-8.52zm-7.08 0h1.485v7.185h3.375l.21 1.335h-5.07v-8.52zm-4.26 0h1.5V189h-1.5v-8.52zm-5.625 8.52h-2.925v-8.52h2.91c1.995 0 2.955.9 2.955 2.175 0 .96-.54 1.53-1.305 1.845 1.02.285 1.695.885 1.695 1.995 0 1.71-1.305 2.505-3.33 2.505zm-.075-7.275h-1.425v2.22h1.38c1.095 0 1.665-.405 1.665-1.17 0-.675-.495-1.05-1.62-1.05zm.12 3.42h-1.545v2.625h1.53c1.185 0 1.89-.36 1.89-1.275 0-.87-.645-1.35-1.875-1.35z" id="path-5" class="cls-11" fill-rule="evenodd"/><path d="M498.423 224.68V226h-5.58v-8.52h5.46v1.335h-3.975v2.1h3.18l.225 1.305h-3.405v2.46h4.095zm-9 1.41l-2.49-3.33h-1.065V226h-1.47v-8.52h2.7c2.07 0 3.315.96 3.315 2.64 0 1.26-.75 2.07-1.89 2.415l2.52 3.225-1.62.33zm-.495-5.955c0-.87-.6-1.365-1.845-1.365h-1.215v2.805h1.215c1.185 0 1.845-.54 1.845-1.44zm-10.95 6.03c-2.295 0-4.23-1.665-4.23-4.41 0-2.775 1.95-4.44 4.23-4.44 2.295 0 4.215 1.65 4.215 4.425 0 2.745-1.935 4.425-4.215 4.425zm0-7.575c-1.71 0-2.715 1.35-2.715 3.15 0 1.74 1.05 3.165 2.715 3.165 1.68 0 2.685-1.38 2.685-3.15s-1.05-3.165-2.685-3.165zm-8.325.51l-2.595 6.93h-1.485l-2.595-6.93-.54 6.9h-1.365l.705-8.52h2.1l2.52 6.855 2.535-6.855h2.055l.705 8.52h-1.485l-.555-6.9zm-19.335 6.9h-2.625v-8.52h2.64c3.15 0 4.845 1.8 4.845 4.26 0 2.415-1.74 4.26-4.86 4.26zm.105-7.185h-1.245v5.865h1.215c2.025 0 3.255-1.065 3.255-2.925 0-1.86-1.29-2.94-3.225-2.94zm-11.25.87V226h-1.35v-8.52h1.5l4.32 6.06v-6.06h1.35V226h-1.305l-4.515-6.315zm-5.52 4.155h-3.9l-.825 2.16h-1.515l3.51-8.61h1.65l3.465 8.43-1.485.33-.9-2.31zm-1.935-5.025l-1.455 3.72h2.895l-1.44-3.72z" id="path-6" class="cls-11" fill-rule="evenodd"/><path d="M546 240H374c-1.657 0-3-1.343-3-3v-30c0-1.657 1.343-3 3-3h172c1.657 0 3 1.343 3 3v30c0 1.657-1.343 3-3 3zm1-33c0-.552-.448-1-1-1H374c-.552 0-1 .448-1 1v30c0 .552.448 1 1 1h172c.552 0 1-.448 1-1v-30zm-1-5H374c-1.657 0-3-1.343-3-3v-30c0-1.657 1.343-3 3-3h172c1.657 0 3 1.343 3 3v30c0 1.657-1.343 3-3 3zm1-33c0-.552-.448-1-1-1H374c-.552 0-1 .448-1 1v30c0 .552.448 1 1 1h172c.552 0 1-.448 1-1v-30zm-1-5H374c-1.657 0-3-1.343-3-3v-30c0-1.657 1.343-3 3-3h172c1.657 0 3 1.343 3 3v30c0 1.657-1.343 3-3 3zm1-33c0-.552-.448-1-1-1H374c-.552 0-1 .448-1 1v30c0 .552.448 1 1 1h172c.552 0 1-.448 1-1v-30zm-1-5H374c-1.657 0-3-1.343-3-3V93c0-1.657 1.343-3 3-3h172c1.657 0 3 1.343 3 3v30c0 1.657-1.343 3-3 3zm1-33c0-.552-.448-1-1-1H374c-.552 0-1 .448-1 1v30c0 .552.448 1 1 1h172c.552 0 1-.448 1-1V93z" id="path-7" class="cls-15" fill-rule="evenodd"/><path d="M534 87V73h14v14h-14zm0-33h14v14h-14V54zm0-17h14v14h-14V37zm0-18h14v14h-14V19zm0-18h14v14h-14V1zm-18 72h14v14h-14V73zm0-19h14v14h-14V54zm0-17h14v14h-14V37zm0-18h14v14h-14V19zm0-18h14v14h-14V1zm-18 72h14v14h-14V73zm0-19h14v14h-14V54zm0-17h14v14h-14V37zm0-18h14v14h-14V19zm0-18h14v14h-14V1zm-17 72h14v14h-14V73zm0-19h14v14h-14V54zm0-17h14v14h-14V37zm0-18h14v14h-14V19zm0-18h14v14h-14V1zm-19 72h14v14h-14V73zm0-19h14v14h-14V54zm0-17h14v14h-14V37zm0-18h14v14h-14V19zm0-18h14v14h-14V1zm-18 72h14v14h-14V73zm0-19h14v14h-14V54zm0-17h14v14h-14V37zm0-18h14v14h-14V19zm0-18h14v14h-14V1zm-18 72h14v14h-14V73zm0-19h14v14h-14V54zm0-17h14v14h-14V37zm0-18h14v14h-14V19zm0-18h14v14h-14V1zm-18 72h14v14h-14V73zm0-19h14v14h-14V54zm0-17h14v14h-14V37zm0-18h14v14h-14V19zm0-18h14v14h-14V1zm-17 72h14v14h-14V73zm0-19h14v14h-14V54zm0-17h14v14h-14V37zm0-18h14v14h-14V19zm0-18h14v14h-14V1zm-19 72h14v14h-14V73zm0-19h14v14h-14V54zm0-17h14v14h-14V37zm0-18h14v14h-14V19zm0-18h14v14h-14V1z" id="path-8" class="cls-7" fill-rule="evenodd"/><path d="M534 329v-14h14v14h-14zm0-33h14v14h-14v-14zm0-17h14v14h-14v-14zm0-18h14v14h-14v-14zm0-18h14v14h-14v-14zm-18 72h14v14h-14v-14zm0-19h14v14h-14v-14zm0-17h14v14h-14v-14zm0-18h14v14h-14v-14zm0-18h14v14h-14v-14zm-18 72h14v14h-14v-14zm0-19h14v14h-14v-14zm0-17h14v14h-14v-14zm0-18h14v14h-14v-14zm0-18h14v14h-14v-14zm-17 72h14v14h-14v-14zm0-19h14v14h-14v-14zm0-17h14v14h-14v-14zm0-18h14v14h-14v-14zm0-18h14v14h-14v-14zm-19 72h14v14h-14v-14zm0-19h14v14h-14v-14zm0-17h14v14h-14v-14zm0-18h14v14h-14v-14zm0-18h14v14h-14v-14zm-18 72h14v14h-14v-14zm0-19h14v14h-14v-14zm0-17h14v14h-14v-14zm0-18h14v14h-14v-14zm0-18h14v14h-14v-14zm-18 72h14v14h-14v-14zm0-19h14v14h-14v-14zm0-17h14v14h-14v-14zm0-18h14v14h-14v-14zm0-18h14v14h-14v-14zm-18 72h14v14h-14v-14zm0-19h14v14h-14v-14zm0-17h14v14h-14v-14zm0-18h14v14h-14v-14zm0-18h14v14h-14v-14zm-17 72h14v14h-14v-14zm0-19h14v14h-14v-14zm0-17h14v14h-14v-14zm0-18h14v14h-14v-14zm0-18h14v14h-14v-14zm-19 72h14v14h-14v-14zm0-19h14v14h-14v-14zm0-17h14v14h-14v-14zm0-18h14v14h-14v-14zm0-18h14v14h-14v-14z" id="path-9" class="cls-7" fill-rule="evenodd"/><path d="M546 330h-10c-1.657 0-3-1.343-3-3v-10c0-1.657 1.343-3 3-3h10c1.657 0 3 1.343 3 3v10c0 1.657-1.343 3-3 3zm1-13c0-.552-.448-1-1-1h-10c-.552 0-1 .448-1 1v10c0 .552.448 1 1 1h10c.552 0 1-.448 1-1v-10zm-1-5h-10c-1.657 0-3-1.343-3-3v-10c0-1.657 1.343-3 3-3h10c1.657 0 3 1.343 3 3v10c0 1.657-1.343 3-3 3zm1-13c0-.552-.448-1-1-1h-10c-.552 0-1 .448-1 1v10c0 .552.448 1 1 1h10c.552 0 1-.448 1-1v-10zm-1-5h-10c-1.657 0-3-1.343-3-3v-10c0-1.657 1.343-3 3-3h10c1.657 0 3 1.343 3 3v10c0 1.657-1.343 3-3 3zm1-13c0-.552-.448-1-1-1h-10c-.552 0-1 .448-1 1v10c0 .552.448 1 1 1h10c.552 0 1-.448 1-1v-10zm-1-5h-10c-1.657 0-3-1.343-3-3v-10c0-1.657 1.343-3 3-3h10c1.657 0 3 1.343 3 3v10c0 1.657-1.343 3-3 3zm1-13c0-.552-.448-1-1-1h-10c-.552 0-1 .448-1 1v10c0 .552.448 1 1 1h10c.552 0 1-.448 1-1v-10zm-1-5h-10c-1.657 0-3-1.343-3-3v-10c0-1.657 1.343-3 3-3h10c1.657 0 3 1.343 3 3v10c0 1.657-1.343 3-3 3zm1-13c0-.552-.448-1-1-1h-10c-.552 0-1 .448-1 1v10c0 .552.448 1 1 1h10c.552 0 1-.448 1-1v-10zm-19 85h-10c-1.657 0-3-1.343-3-3v-10c0-1.657 1.343-3 3-3h10c1.657 0 3 1.343 3 3v10c0 1.657-1.343 3-3 3zm1-13c0-.552-.448-1-1-1h-10c-.552 0-1 .448-1 1v10c0 .552.448 1 1 1h10c.552 0 1-.448 1-1v-10zm-1-5h-10c-1.657 0-3-1.343-3-3v-10c0-1.657 1.343-3 3-3h10c1.657 0 3 1.343 3 3v10c0 1.657-1.343 3-3 3zm1-13c0-.552-.448-1-1-1h-10c-.552 0-1 .448-1 1v10c0 .552.448 1 1 1h10c.552 0 1-.448 1-1v-10zm-1-5h-10c-1.657 0-3-1.343-3-3v-10c0-1.657 1.343-3 3-3h10c1.657 0 3 1.343 3 3v10c0 1.657-1.343 3-3 3zm1-13c0-.552-.448-1-1-1h-10c-.552 0-1 .448-1 1v10c0 .552.448 1 1 1h10c.552 0 1-.448 1-1v-10zm-1-5h-10c-1.657 0-3-1.343-3-3v-10c0-1.657 1.343-3 3-3h10c1.657 0 3 1.343 3 3v10c0 1.657-1.343 3-3 3zm1-13c0-.552-.448-1-1-1h-10c-.552 0-1 .448-1 1v10c0 .552.448 1 1 1h10c.552 0 1-.448 1-1v-10zm-1-5h-10c-1.657 0-3-1.343-3-3v-10c0-1.657 1.343-3 3-3h10c1.657 0 3 1.343 3 3v10c0 1.657-1.343 3-3 3zm1-13c0-.552-.448-1-1-1h-10c-.552 0-1 .448-1 1v10c0 .552.448 1 1 1h10c.552 0 1-.448 1-1v-10zm-19 85h-10c-1.657 0-3-1.343-3-3v-10c0-1.657 1.343-3 3-3h10c1.657 0 3 1.343 3 3v10c0 1.657-1.343 3-3 3zm1-13c0-.552-.448-1-1-1h-10c-.552 0-1 .448-1 1v10c0 .552.448 1 1 1h10c.552 0 1-.448 1-1v-10zm-1-5h-10c-1.657 0-3-1.343-3-3v-10c0-1.657 1.343-3 3-3h10c1.657 0 3 1.343 3 3v10c0 1.657-1.343 3-3 3zm1-13c0-.552-.448-1-1-1h-10c-.552 0-1 .448-1 1v10c0 .552.448 1 1 1h10c.552 0 1-.448 1-1v-10zm-1-5h-10c-1.657 0-3-1.343-3-3v-10c0-1.657 1.343-3 3-3h10c1.657 0 3 1.343 3 3v10c0 1.657-1.343 3-3 3zm1-13c0-.552-.448-1-1-1h-10c-.552 0-1 .448-1 1v10c0 .552.448 1 1 1h10c.552 0 1-.448 1-1v-10zm-1-5h-10c-1.657 0-3-1.343-3-3v-10c0-1.657 1.343-3 3-3h10c1.657 0 3 1.343 3 3v10c0 1.657-1.343 3-3 3zm1-13c0-.552-.448-1-1-1h-10c-.552 0-1 .448-1 1v10c0 .552.448 1 1 1h10c.552 0 1-.448 1-1v-10zm-1-5h-10c-1.657 0-3-1.343-3-3v-10c0-1.657 1.343-3 3-3h10c1.657 0 3 1.343 3 3v10c0 1.657-1.343 3-3 3zm1-13c0-.552-.448-1-1-1h-10c-.552 0-1 .448-1 1v10c0 .552.448 1 1 1h10c.552 0 1-.448 1-1v-10zm-19 85h-10c-1.657 0-3-1.343-3-3v-10c0-1.657 1.343-3 3-3h10c1.657 0 3 1.343 3 3v10c0 1.657-1.343 3-3 3zm1-13c0-.552-.448-1-1-1h-10c-.552 0-1 .448-1 1v10c0 .552.448 1 1 1h10c.552 0 1-.448 1-1v-10zm-1-5h-10c-1.657 0-3-1.343-3-3v-10c0-1.657 1.343-3 3-3h10c1.657 0 3 1.343 3 3v10c0 1.657-1.343 3-3 3zm1-13c0-.552-.448-1-1-1h-10c-.552 0-1 .448-1 1v10c0 .552.448 1 1 1h10c.552 0 1-.448 1-1v-10zm-1-5h-10c-1.657 0-3-1.343-3-3v-10c0-1.657 1.343-3 3-3h10c1.657 0 3 1.343 3 3v10c0 1.657-1.343 3-3 3zm1-13c0-.552-.448-1-1-1h-10c-.552 0-1 .448-1 1v10c0 .552.448 1 1 1h10c.552 0 1-.448 1-1v-10zm-1-5h-10c-1.657 0-3-1.343-3-3v-10c0-1.657 1.343-3 3-3h10c1.657 0 3 1.343 3 3v10c0 1.657-1.343 3-3 3zm1-13c0-.552-.448-1-1-1h-10c-.552 0-1 .448-1 1v10c0 .552.448 1 1 1h10c.552 0 1-.448 1-1v-10zm-1-5h-10c-1.657 0-3-1.343-3-3v-10c0-1.657 1.343-3 3-3h10c1.657 0 3 1.343 3 3v10c0 1.657-1.343 3-3 3zm1-13c0-.552-.448-1-1-1h-10c-.552 0-1 .448-1 1v10c0 .552.448 1 1 1h10c.552 0 1-.448 1-1v-10zm-19 85h-10c-1.657 0-3-1.343-3-3v-10c0-1.657 1.343-3 3-3h10c1.657 0 3 1.343 3 3v10c0 1.657-1.343 3-3 3zm1-13c0-.552-.448-1-1-1h-10c-.552 0-1 .448-1 1v10c0 .552.448 1 1 1h10c.552 0 1-.448 1-1v-10zm-1-5h-10c-1.657 0-3-1.343-3-3v-10c0-1.657 1.343-3 3-3h10c1.657 0 3 1.343 3 3v10c0 1.657-1.343 3-3 3zm1-13c0-.552-.448-1-1-1h-10c-.552 0-1 .448-1 1v10c0 .552.448 1 1 1h10c.552 0 1-.448 1-1v-10zm-1-5h-10c-1.657 0-3-1.343-3-3v-10c0-1.657 1.343-3 3-3h10c1.657 0 3 1.343 3 3v10c0 1.657-1.343 3-3 3zm1-13c0-.552-.448-1-1-1h-10c-.552 0-1 .448-1 1v10c0 .552.448 1 1 1h10c.552 0 1-.448 1-1v-10zm-1-5h-10c-1.657 0-3-1.343-3-3v-10c0-1.657 1.343-3 3-3h10c1.657 0 3 1.343 3 3v10c0 1.657-1.343 3-3 3zm1-13c0-.552-.448-1-1-1h-10c-.552 0-1 .448-1 1v10c0 .552.448 1 1 1h10c.552 0 1-.448 1-1v-10zm-1-5h-10c-1.657 0-3-1.343-3-3v-10c0-1.657 1.343-3 3-3h10c1.657 0 3 1.343 3 3v10c0 1.657-1.343 3-3 3zm1-13c0-.552-.448-1-1-1h-10c-.552 0-1 .448-1 1v10c0 .552.448 1 1 1h10c.552 0 1-.448 1-1v-10zm-19 85h-10c-1.657 0-3-1.343-3-3v-10c0-1.657 1.343-3 3-3h10c1.657 0 3 1.343 3 3v10c0 1.657-1.343 3-3 3zm1-13c0-.552-.448-1-1-1h-10c-.552 0-1 .448-1 1v10c0 .552.448 1 1 1h10c.552 0 1-.448 1-1v-10zm-1-5h-10c-1.657 0-3-1.343-3-3v-10c0-1.657 1.343-3 3-3h10c1.657 0 3 1.343 3 3v10c0 1.657-1.343 3-3 3zm1-13c0-.552-.448-1-1-1h-10c-.552 0-1 .448-1 1v10c0 .552.448 1 1 1h10c.552 0 1-.448 1-1v-10zm-1-5h-10c-1.657 0-3-1.343-3-3v-10c0-1.657 1.343-3 3-3h10c1.657 0 3 1.343 3 3v10c0 1.657-1.343 3-3 3zm1-13c0-.552-.448-1-1-1h-10c-.552 0-1 .448-1 1v10c0 .552.448 1 1 1h10c.552 0 1-.448 1-1v-10zm-1-5h-10c-1.657 0-3-1.343-3-3v-10c0-1.657 1.343-3 3-3h10c1.657 0 3 1.343 3 3v10c0 1.657-1.343 3-3 3zm1-13c0-.552-.448-1-1-1h-10c-.552 0-1 .448-1 1v10c0 .552.448 1 1 1h10c.552 0 1-.448 1-1v-10zm-1-5h-10c-1.657 0-3-1.343-3-3v-10c0-1.657 1.343-3 3-3h10c1.657 0 3 1.343 3 3v10c0 1.657-1.343 3-3 3zm1-13c0-.552-.448-1-1-1h-10c-.552 0-1 .448-1 1v10c0 .552.448 1 1 1h10c.552 0 1-.448 1-1v-10zm-19 85h-10c-1.657 0-3-1.343-3-3v-10c0-1.657 1.343-3 3-3h10c1.657 0 3 1.343 3 3v10c0 1.657-1.343 3-3 3zm1-13c0-.552-.448-1-1-1h-10c-.552 0-1 .448-1 1v10c0 .552.448 1 1 1h10c.552 0 1-.448 1-1v-10zm-1-5h-10c-1.657 0-3-1.343-3-3v-10c0-1.657 1.343-3 3-3h10c1.657 0 3 1.343 3 3v10c0 1.657-1.343 3-3 3zm1-13c0-.552-.448-1-1-1h-10c-.552 0-1 .448-1 1v10c0 .552.448 1 1 1h10c.552 0 1-.448 1-1v-10zm-1-5h-10c-1.657 0-3-1.343-3-3v-10c0-1.657 1.343-3 3-3h10c1.657 0 3 1.343 3 3v10c0 1.657-1.343 3-3 3zm1-13c0-.552-.448-1-1-1h-10c-.552 0-1 .448-1 1v10c0 .552.448 1 1 1h10c.552 0 1-.448 1-1v-10zm-1-5h-10c-1.657 0-3-1.343-3-3v-10c0-1.657 1.343-3 3-3h10c1.657 0 3 1.343 3 3v10c0 1.657-1.343 3-3 3zm1-13c0-.552-.448-1-1-1h-10c-.552 0-1 .448-1 1v10c0 .552.448 1 1 1h10c.552 0 1-.448 1-1v-10zm-1-5h-10c-1.657 0-3-1.343-3-3v-10c0-1.657 1.343-3 3-3h10c1.657 0 3 1.343 3 3v10c0 1.657-1.343 3-3 3zm1-13c0-.552-.448-1-1-1h-10c-.552 0-1 .448-1 1v10c0 .552.448 1 1 1h10c.552 0 1-.448 1-1v-10zm-19 85h-10c-1.657 0-3-1.343-3-3v-10c0-1.657 1.343-3 3-3h10c1.657 0 3 1.343 3 3v10c0 1.657-1.343 3-3 3zm1-13c0-.552-.448-1-1-1h-10c-.552 0-1 .448-1 1v10c0 .552.448 1 1 1h10c.552 0 1-.448 1-1v-10zm-1-5h-10c-1.657 0-3-1.343-3-3v-10c0-1.657 1.343-3 3-3h10c1.657 0 3 1.343 3 3v10c0 1.657-1.343 3-3 3zm1-13c0-.552-.448-1-1-1h-10c-.552 0-1 .448-1 1v10c0 .552.448 1 1 1h10c.552 0 1-.448 1-1v-10zm-1-5h-10c-1.657 0-3-1.343-3-3v-10c0-1.657 1.343-3 3-3h10c1.657 0 3 1.343 3 3v10c0 1.657-1.343 3-3 3zm1-13c0-.552-.448-1-1-1h-10c-.552 0-1 .448-1 1v10c0 .552.448 1 1 1h10c.552 0 1-.448 1-1v-10zm-1-5h-10c-1.657 0-3-1.343-3-3v-10c0-1.657 1.343-3 3-3h10c1.657 0 3 1.343 3 3v10c0 1.657-1.343 3-3 3zm1-13c0-.552-.448-1-1-1h-10c-.552 0-1 .448-1 1v10c0 .552.448 1 1 1h10c.552 0 1-.448 1-1v-10zm-1-5h-10c-1.657 0-3-1.343-3-3v-10c0-1.657 1.343-3 3-3h10c1.657 0 3 1.343 3 3v10c0 1.657-1.343 3-3 3zm1-13c0-.552-.448-1-1-1h-10c-.552 0-1 .448-1 1v10c0 .552.448 1 1 1h10c.552 0 1-.448 1-1v-10zm-19 85h-10c-1.657 0-3-1.343-3-3v-10c0-1.657 1.343-3 3-3h10c1.657 0 3 1.343 3 3v10c0 1.657-1.343 3-3 3zm1-13c0-.552-.448-1-1-1h-10c-.552 0-1 .448-1 1v10c0 .552.448 1 1 1h10c.552 0 1-.448 1-1v-10zm-1-5h-10c-1.657 0-3-1.343-3-3v-10c0-1.657 1.343-3 3-3h10c1.657 0 3 1.343 3 3v10c0 1.657-1.343 3-3 3zm1-13c0-.552-.448-1-1-1h-10c-.552 0-1 .448-1 1v10c0 .552.448 1 1 1h10c.552 0 1-.448 1-1v-10zm-1-5h-10c-1.657 0-3-1.343-3-3v-10c0-1.657 1.343-3 3-3h10c1.657 0 3 1.343 3 3v10c0 1.657-1.343 3-3 3zm1-13c0-.552-.448-1-1-1h-10c-.552 0-1 .448-1 1v10c0 .552.448 1 1 1h10c.552 0 1-.448 1-1v-10zm-1-5h-10c-1.657 0-3-1.343-3-3v-10c0-1.657 1.343-3 3-3h10c1.657 0 3 1.343 3 3v10c0 1.657-1.343 3-3 3zm1-13c0-.552-.448-1-1-1h-10c-.552 0-1 .448-1 1v10c0 .552.448 1 1 1h10c.552 0 1-.448 1-1v-10zm-1-5h-10c-1.657 0-3-1.343-3-3v-10c0-1.657 1.343-3 3-3h10c1.657 0 3 1.343 3 3v10c0 1.657-1.343 3-3 3zm1-13c0-.552-.448-1-1-1h-10c-.552 0-1 .448-1 1v10c0 .552.448 1 1 1h10c.552 0 1-.448 1-1v-10zm-19 85h-10c-1.657 0-3-1.343-3-3v-10c0-1.657 1.343-3 3-3h10c1.657 0 3 1.343 3 3v10c0 1.657-1.343 3-3 3zm1-13c0-.552-.448-1-1-1h-10c-.552 0-1 .448-1 1v10c0 .552.448 1 1 1h10c.552 0 1-.448 1-1v-10zm-1-5h-10c-1.657 0-3-1.343-3-3v-10c0-1.657 1.343-3 3-3h10c1.657 0 3 1.343 3 3v10c0 1.657-1.343 3-3 3zm1-13c0-.552-.448-1-1-1h-10c-.552 0-1 .448-1 1v10c0 .552.448 1 1 1h10c.552 0 1-.448 1-1v-10zm-1-5h-10c-1.657 0-3-1.343-3-3v-10c0-1.657 1.343-3 3-3h10c1.657 0 3 1.343 3 3v10c0 1.657-1.343 3-3 3zm1-13c0-.552-.448-1-1-1h-10c-.552 0-1 .448-1 1v10c0 .552.448 1 1 1h10c.552 0 1-.448 1-1v-10zm-1-5h-10c-1.657 0-3-1.343-3-3v-10c0-1.657 1.343-3 3-3h10c1.657 0 3 1.343 3 3v10c0 1.657-1.343 3-3 3zm1-13c0-.552-.448-1-1-1h-10c-.552 0-1 .448-1 1v10c0 .552.448 1 1 1h10c.552 0 1-.448 1-1v-10zm-1-5h-10c-1.657 0-3-1.343-3-3v-10c0-1.657 1.343-3 3-3h10c1.657 0 3 1.343 3 3v10c0 1.657-1.343 3-3 3zm1-13c0-.552-.448-1-1-1h-10c-.552 0-1 .448-1 1v10c0 .552.448 1 1 1h10c.552 0 1-.448 1-1v-10z" id="path-10" class="cls-18" fill-rule="evenodd"/><path d="M546 88h-10c-1.657 0-3-1.343-3-3V75c0-1.657 1.343-3 3-3h10c1.657 0 3 1.343 3 3v10c0 1.657-1.343 3-3 3zm1-13c0-.552-.448-1-1-1h-10c-.552 0-1 .448-1 1v10c0 .552.448 1 1 1h10c.552 0 1-.448 1-1V75zm-1-5h-10c-1.657 0-3-1.343-3-3V57c0-1.657 1.343-3 3-3h10c1.657 0 3 1.343 3 3v10c0 1.657-1.343 3-3 3zm1-13c0-.552-.448-1-1-1h-10c-.552 0-1 .448-1 1v10c0 .552.448 1 1 1h10c.552 0 1-.448 1-1V57zm-1-5h-10c-1.657 0-3-1.343-3-3V39c0-1.657 1.343-3 3-3h10c1.657 0 3 1.343 3 3v10c0 1.657-1.343 3-3 3zm1-13c0-.552-.448-1-1-1h-10c-.552 0-1 .448-1 1v10c0 .552.448 1 1 1h10c.552 0 1-.448 1-1V39zm-1-5h-10c-1.657 0-3-1.343-3-3V21c0-1.657 1.343-3 3-3h10c1.657 0 3 1.343 3 3v10c0 1.657-1.343 3-3 3zm1-13c0-.552-.448-1-1-1h-10c-.552 0-1 .448-1 1v10c0 .552.448 1 1 1h10c.552 0 1-.448 1-1V21zm-1-5h-10c-1.657 0-3-1.343-3-3V3c0-1.657 1.343-3 3-3h10c1.657 0 3 1.343 3 3v10c0 1.657-1.343 3-3 3zm1-13c0-.552-.448-1-1-1h-10c-.552 0-1 .448-1 1v10c0 .552.448 1 1 1h10c.552 0 1-.448 1-1V3zm-19 85h-10c-1.657 0-3-1.343-3-3V75c0-1.657 1.343-3 3-3h10c1.657 0 3 1.343 3 3v10c0 1.657-1.343 3-3 3zm1-13c0-.552-.448-1-1-1h-10c-.552 0-1 .448-1 1v10c0 .552.448 1 1 1h10c.552 0 1-.448 1-1V75zm-1-5h-10c-1.657 0-3-1.343-3-3V57c0-1.657 1.343-3 3-3h10c1.657 0 3 1.343 3 3v10c0 1.657-1.343 3-3 3zm1-13c0-.552-.448-1-1-1h-10c-.552 0-1 .448-1 1v10c0 .552.448 1 1 1h10c.552 0 1-.448 1-1V57zm-1-5h-10c-1.657 0-3-1.343-3-3V39c0-1.657 1.343-3 3-3h10c1.657 0 3 1.343 3 3v10c0 1.657-1.343 3-3 3zm1-13c0-.552-.448-1-1-1h-10c-.552 0-1 .448-1 1v10c0 .552.448 1 1 1h10c.552 0 1-.448 1-1V39zm-1-5h-10c-1.657 0-3-1.343-3-3V21c0-1.657 1.343-3 3-3h10c1.657 0 3 1.343 3 3v10c0 1.657-1.343 3-3 3zm1-13c0-.552-.448-1-1-1h-10c-.552 0-1 .448-1 1v10c0 .552.448 1 1 1h10c.552 0 1-.448 1-1V21zm-1-5h-10c-1.657 0-3-1.343-3-3V3c0-1.657 1.343-3 3-3h10c1.657 0 3 1.343 3 3v10c0 1.657-1.343 3-3 3zm1-13c0-.552-.448-1-1-1h-10c-.552 0-1 .448-1 1v10c0 .552.448 1 1 1h10c.552 0 1-.448 1-1V3zm-19 85h-10c-1.657 0-3-1.343-3-3V75c0-1.657 1.343-3 3-3h10c1.657 0 3 1.343 3 3v10c0 1.657-1.343 3-3 3zm1-13c0-.552-.448-1-1-1h-10c-.552 0-1 .448-1 1v10c0 .552.448 1 1 1h10c.552 0 1-.448 1-1V75zm-1-5h-10c-1.657 0-3-1.343-3-3V57c0-1.657 1.343-3 3-3h10c1.657 0 3 1.343 3 3v10c0 1.657-1.343 3-3 3zm1-13c0-.552-.448-1-1-1h-10c-.552 0-1 .448-1 1v10c0 .552.448 1 1 1h10c.552 0 1-.448 1-1V57zm-1-5h-10c-1.657 0-3-1.343-3-3V39c0-1.657 1.343-3 3-3h10c1.657 0 3 1.343 3 3v10c0 1.657-1.343 3-3 3zm1-13c0-.552-.448-1-1-1h-10c-.552 0-1 .448-1 1v10c0 .552.448 1 1 1h10c.552 0 1-.448 1-1V39zm-1-5h-10c-1.657 0-3-1.343-3-3V21c0-1.657 1.343-3 3-3h10c1.657 0 3 1.343 3 3v10c0 1.657-1.343 3-3 3zm1-13c0-.552-.448-1-1-1h-10c-.552 0-1 .448-1 1v10c0 .552.448 1 1 1h10c.552 0 1-.448 1-1V21zm-1-5h-10c-1.657 0-3-1.343-3-3V3c0-1.657 1.343-3 3-3h10c1.657 0 3 1.343 3 3v10c0 1.657-1.343 3-3 3zm1-13c0-.552-.448-1-1-1h-10c-.552 0-1 .448-1 1v10c0 .552.448 1 1 1h10c.552 0 1-.448 1-1V3zm-19 85h-10c-1.657 0-3-1.343-3-3V75c0-1.657 1.343-3 3-3h10c1.657 0 3 1.343 3 3v10c0 1.657-1.343 3-3 3zm1-13c0-.552-.448-1-1-1h-10c-.552 0-1 .448-1 1v10c0 .552.448 1 1 1h10c.552 0 1-.448 1-1V75zm-1-5h-10c-1.657 0-3-1.343-3-3V57c0-1.657 1.343-3 3-3h10c1.657 0 3 1.343 3 3v10c0 1.657-1.343 3-3 3zm1-13c0-.552-.448-1-1-1h-10c-.552 0-1 .448-1 1v10c0 .552.448 1 1 1h10c.552 0 1-.448 1-1V57zm-1-5h-10c-1.657 0-3-1.343-3-3V39c0-1.657 1.343-3 3-3h10c1.657 0 3 1.343 3 3v10c0 1.657-1.343 3-3 3zm1-13c0-.552-.448-1-1-1h-10c-.552 0-1 .448-1 1v10c0 .552.448 1 1 1h10c.552 0 1-.448 1-1V39zm-1-5h-10c-1.657 0-3-1.343-3-3V21c0-1.657 1.343-3 3-3h10c1.657 0 3 1.343 3 3v10c0 1.657-1.343 3-3 3zm1-13c0-.552-.448-1-1-1h-10c-.552 0-1 .448-1 1v10c0 .552.448 1 1 1h10c.552 0 1-.448 1-1V21zm-1-5h-10c-1.657 0-3-1.343-3-3V3c0-1.657 1.343-3 3-3h10c1.657 0 3 1.343 3 3v10c0 1.657-1.343 3-3 3zm1-13c0-.552-.448-1-1-1h-10c-.552 0-1 .448-1 1v10c0 .552.448 1 1 1h10c.552 0 1-.448 1-1V3zm-19 85h-10c-1.657 0-3-1.343-3-3V75c0-1.657 1.343-3 3-3h10c1.657 0 3 1.343 3 3v10c0 1.657-1.343 3-3 3zm1-13c0-.552-.448-1-1-1h-10c-.552 0-1 .448-1 1v10c0 .552.448 1 1 1h10c.552 0 1-.448 1-1V75zm-1-5h-10c-1.657 0-3-1.343-3-3V57c0-1.657 1.343-3 3-3h10c1.657 0 3 1.343 3 3v10c0 1.657-1.343 3-3 3zm1-13c0-.552-.448-1-1-1h-10c-.552 0-1 .448-1 1v10c0 .552.448 1 1 1h10c.552 0 1-.448 1-1V57zm-1-5h-10c-1.657 0-3-1.343-3-3V39c0-1.657 1.343-3 3-3h10c1.657 0 3 1.343 3 3v10c0 1.657-1.343 3-3 3zm1-13c0-.552-.448-1-1-1h-10c-.552 0-1 .448-1 1v10c0 .552.448 1 1 1h10c.552 0 1-.448 1-1V39zm-1-5h-10c-1.657 0-3-1.343-3-3V21c0-1.657 1.343-3 3-3h10c1.657 0 3 1.343 3 3v10c0 1.657-1.343 3-3 3zm1-13c0-.552-.448-1-1-1h-10c-.552 0-1 .448-1 1v10c0 .552.448 1 1 1h10c.552 0 1-.448 1-1V21zm-1-5h-10c-1.657 0-3-1.343-3-3V3c0-1.657 1.343-3 3-3h10c1.657 0 3 1.343 3 3v10c0 1.657-1.343 3-3 3zm1-13c0-.552-.448-1-1-1h-10c-.552 0-1 .448-1 1v10c0 .552.448 1 1 1h10c.552 0 1-.448 1-1V3zm-19 85h-10c-1.657 0-3-1.343-3-3V75c0-1.657 1.343-3 3-3h10c1.657 0 3 1.343 3 3v10c0 1.657-1.343 3-3 3zm1-13c0-.552-.448-1-1-1h-10c-.552 0-1 .448-1 1v10c0 .552.448 1 1 1h10c.552 0 1-.448 1-1V75zm-1-5h-10c-1.657 0-3-1.343-3-3V57c0-1.657 1.343-3 3-3h10c1.657 0 3 1.343 3 3v10c0 1.657-1.343 3-3 3zm1-13c0-.552-.448-1-1-1h-10c-.552 0-1 .448-1 1v10c0 .552.448 1 1 1h10c.552 0 1-.448 1-1V57zm-1-5h-10c-1.657 0-3-1.343-3-3V39c0-1.657 1.343-3 3-3h10c1.657 0 3 1.343 3 3v10c0 1.657-1.343 3-3 3zm1-13c0-.552-.448-1-1-1h-10c-.552 0-1 .448-1 1v10c0 .552.448 1 1 1h10c.552 0 1-.448 1-1V39zm-1-5h-10c-1.657 0-3-1.343-3-3V21c0-1.657 1.343-3 3-3h10c1.657 0 3 1.343 3 3v10c0 1.657-1.343 3-3 3zm1-13c0-.552-.448-1-1-1h-10c-.552 0-1 .448-1 1v10c0 .552.448 1 1 1h10c.552 0 1-.448 1-1V21zm-1-5h-10c-1.657 0-3-1.343-3-3V3c0-1.657 1.343-3 3-3h10c1.657 0 3 1.343 3 3v10c0 1.657-1.343 3-3 3zm1-13c0-.552-.448-1-1-1h-10c-.552 0-1 .448-1 1v10c0 .552.448 1 1 1h10c.552 0 1-.448 1-1V3zm-19 85h-10c-1.657 0-3-1.343-3-3V75c0-1.657 1.343-3 3-3h10c1.657 0 3 1.343 3 3v10c0 1.657-1.343 3-3 3zm1-13c0-.552-.448-1-1-1h-10c-.552 0-1 .448-1 1v10c0 .552.448 1 1 1h10c.552 0 1-.448 1-1V75zm-1-5h-10c-1.657 0-3-1.343-3-3V57c0-1.657 1.343-3 3-3h10c1.657 0 3 1.343 3 3v10c0 1.657-1.343 3-3 3zm1-13c0-.552-.448-1-1-1h-10c-.552 0-1 .448-1 1v10c0 .552.448 1 1 1h10c.552 0 1-.448 1-1V57zm-1-5h-10c-1.657 0-3-1.343-3-3V39c0-1.657 1.343-3 3-3h10c1.657 0 3 1.343 3 3v10c0 1.657-1.343 3-3 3zm1-13c0-.552-.448-1-1-1h-10c-.552 0-1 .448-1 1v10c0 .552.448 1 1 1h10c.552 0 1-.448 1-1V39zm-1-5h-10c-1.657 0-3-1.343-3-3V21c0-1.657 1.343-3 3-3h10c1.657 0 3 1.343 3 3v10c0 1.657-1.343 3-3 3zm1-13c0-.552-.448-1-1-1h-10c-.552 0-1 .448-1 1v10c0 .552.448 1 1 1h10c.552 0 1-.448 1-1V21zm-1-5h-10c-1.657 0-3-1.343-3-3V3c0-1.657 1.343-3 3-3h10c1.657 0 3 1.343 3 3v10c0 1.657-1.343 3-3 3zm1-13c0-.552-.448-1-1-1h-10c-.552 0-1 .448-1 1v10c0 .552.448 1 1 1h10c.552 0 1-.448 1-1V3zm-19 85h-10c-1.657 0-3-1.343-3-3V75c0-1.657 1.343-3 3-3h10c1.657 0 3 1.343 3 3v10c0 1.657-1.343 3-3 3zm1-13c0-.552-.448-1-1-1h-10c-.552 0-1 .448-1 1v10c0 .552.448 1 1 1h10c.552 0 1-.448 1-1V75zm-1-5h-10c-1.657 0-3-1.343-3-3V57c0-1.657 1.343-3 3-3h10c1.657 0 3 1.343 3 3v10c0 1.657-1.343 3-3 3zm1-13c0-.552-.448-1-1-1h-10c-.552 0-1 .448-1 1v10c0 .552.448 1 1 1h10c.552 0 1-.448 1-1V57zm-1-5h-10c-1.657 0-3-1.343-3-3V39c0-1.657 1.343-3 3-3h10c1.657 0 3 1.343 3 3v10c0 1.657-1.343 3-3 3zm1-13c0-.552-.448-1-1-1h-10c-.552 0-1 .448-1 1v10c0 .552.448 1 1 1h10c.552 0 1-.448 1-1V39zm-1-5h-10c-1.657 0-3-1.343-3-3V21c0-1.657 1.343-3 3-3h10c1.657 0 3 1.343 3 3v10c0 1.657-1.343 3-3 3zm1-13c0-.552-.448-1-1-1h-10c-.552 0-1 .448-1 1v10c0 .552.448 1 1 1h10c.552 0 1-.448 1-1V21zm-1-5h-10c-1.657 0-3-1.343-3-3V3c0-1.657 1.343-3 3-3h10c1.657 0 3 1.343 3 3v10c0 1.657-1.343 3-3 3zm1-13c0-.552-.448-1-1-1h-10c-.552 0-1 .448-1 1v10c0 .552.448 1 1 1h10c.552 0 1-.448 1-1V3zm-19 85h-10c-1.657 0-3-1.343-3-3V75c0-1.657 1.343-3 3-3h10c1.657 0 3 1.343 3 3v10c0 1.657-1.343 3-3 3zm1-13c0-.552-.448-1-1-1h-10c-.552 0-1 .448-1 1v10c0 .552.448 1 1 1h10c.552 0 1-.448 1-1V75zm-1-5h-10c-1.657 0-3-1.343-3-3V57c0-1.657 1.343-3 3-3h10c1.657 0 3 1.343 3 3v10c0 1.657-1.343 3-3 3zm1-13c0-.552-.448-1-1-1h-10c-.552 0-1 .448-1 1v10c0 .552.448 1 1 1h10c.552 0 1-.448 1-1V57zm-1-5h-10c-1.657 0-3-1.343-3-3V39c0-1.657 1.343-3 3-3h10c1.657 0 3 1.343 3 3v10c0 1.657-1.343 3-3 3zm1-13c0-.552-.448-1-1-1h-10c-.552 0-1 .448-1 1v10c0 .552.448 1 1 1h10c.552 0 1-.448 1-1V39zm-1-5h-10c-1.657 0-3-1.343-3-3V21c0-1.657 1.343-3 3-3h10c1.657 0 3 1.343 3 3v10c0 1.657-1.343 3-3 3zm1-13c0-.552-.448-1-1-1h-10c-.552 0-1 .448-1 1v10c0 .552.448 1 1 1h10c.552 0 1-.448 1-1V21zm-1-5h-10c-1.657 0-3-1.343-3-3V3c0-1.657 1.343-3 3-3h10c1.657 0 3 1.343 3 3v10c0 1.657-1.343 3-3 3zm1-13c0-.552-.448-1-1-1h-10c-.552 0-1 .448-1 1v10c0 .552.448 1 1 1h10c.552 0 1-.448 1-1V3zm-19 85h-10c-1.657 0-3-1.343-3-3V75c0-1.657 1.343-3 3-3h10c1.657 0 3 1.343 3 3v10c0 1.657-1.343 3-3 3zm1-13c0-.552-.448-1-1-1h-10c-.552 0-1 .448-1 1v10c0 .552.448 1 1 1h10c.552 0 1-.448 1-1V75zm-1-5h-10c-1.657 0-3-1.343-3-3V57c0-1.657 1.343-3 3-3h10c1.657 0 3 1.343 3 3v10c0 1.657-1.343 3-3 3zm1-13c0-.552-.448-1-1-1h-10c-.552 0-1 .448-1 1v10c0 .552.448 1 1 1h10c.552 0 1-.448 1-1V57zm-1-5h-10c-1.657 0-3-1.343-3-3V39c0-1.657 1.343-3 3-3h10c1.657 0 3 1.343 3 3v10c0 1.657-1.343 3-3 3zm1-13c0-.552-.448-1-1-1h-10c-.552 0-1 .448-1 1v10c0 .552.448 1 1 1h10c.552 0 1-.448 1-1V39zm-1-5h-10c-1.657 0-3-1.343-3-3V21c0-1.657 1.343-3 3-3h10c1.657 0 3 1.343 3 3v10c0 1.657-1.343 3-3 3zm1-13c0-.552-.448-1-1-1h-10c-.552 0-1 .448-1 1v10c0 .552.448 1 1 1h10c.552 0 1-.448 1-1V21zm-1-5h-10c-1.657 0-3-1.343-3-3V3c0-1.657 1.343-3 3-3h10c1.657 0 3 1.343 3 3v10c0 1.657-1.343 3-3 3zm1-13c0-.552-.448-1-1-1h-10c-.552 0-1 .448-1 1v10c0 .552.448 1 1 1h10c.552 0 1-.448 1-1V3z" id="path-11" class="cls-18" fill-rule="evenodd"/></g><g id="client-side"><g id="client---mobile"><path d="M150 315c-27.614 0-50-22.386-50-50s22.386-50 50-50 50 22.386 50 50-22.386 50-50 50zm0-98c-26.51 0-48 21.49-48 48s21.49 48 48 48 48-21.49 48-48-21.49-48-48-48z" id="path-12" class="cls-22" fill-rule="evenodd"/><g id="comp"><circle id="circle-1" class="cls-7" cx="150" cy="265" r="48"/><path d="M169.398 278.815V286h-1.5v-7.185h-2.865v-1.335h7.17l.195 1.335h-3zm-12.015.87V286h-1.35v-8.52h1.5l4.32 6.06v-6.06h1.35V286h-1.305l-4.515-6.315zm-9.135-2.205h5.46v1.335h-3.975v2.1h3.18l.225 1.305h-3.405v2.46h4.095V286h-5.58v-8.52zm-4.26 0h1.5V286h-1.5v-8.52zm-7.14 0h1.485v7.185h3.375l.21 1.335h-5.07v-8.52zm-4.695 7.41c.885 0 1.695-.315 2.4-.795l.195 1.32c-.705.45-1.65.75-2.685.75-2.625 0-4.23-1.785-4.23-4.395 0-2.655 1.65-4.455 4.23-4.455 1.08 0 1.875.24 2.55.66l-.24 1.41c-.63-.465-1.335-.78-2.25-.78-1.68 0-2.76 1.155-2.76 3.15 0 1.965 1.125 3.135 2.79 3.135z" id="path-13" class="cls-11" fill-rule="evenodd"/><path d="M157 269h-14c-1.105 0-2-.896-2-2v-20c0-1.105.895-2 2-2h14c1.105 0 2 .895 2 2v20c0 1.104-.895 2-2 2zm0-22h-14v2h14v-2zm0 4h-14v10h14v-10zm0 12h-14v4h14v-4zm-8 1h2c.552 0 1 .448 1 1s-.448 1-1 1h-2c-.552 0-1-.448-1-1s.448-1 1-1z" id="path-14" class="cls-15" fill-rule="evenodd"/></g></g><g id="client---computer"><path d="M150 115c-27.614 0-50-22.386-50-50s22.386-50 50-50 50 22.386 50 50-22.386 50-50 50zm0-98c-26.51 0-48 21.49-48 48s21.49 48 48 48 48-21.49 48-48-21.49-48-48-48z" id="path-15" class="cls-22" fill-rule="evenodd"/><g id="comp-1"><circle id="circle-2" class="cls-7" cx="150" cy="65" r="48"/><path d="M169.398 77.815V85h-1.5v-7.185h-2.865V76.48h7.17l.195 1.335h-3zm-12.015.87V85h-1.35v-8.52h1.5l4.32 6.06v-6.06h1.35V85h-1.305l-4.515-6.315zm-9.135-2.205h5.46v1.335h-3.975v2.1h3.18l.225 1.305h-3.405v2.46h4.095V85h-5.58v-8.52zm-4.26 0h1.5V85h-1.5v-8.52zm-7.14 0h1.485v7.185h3.375l.21 1.335h-5.07v-8.52zm-4.695 7.41c.885 0 1.695-.315 2.4-.795l.195 1.32c-.705.45-1.65.75-2.685.75-2.625 0-4.23-1.785-4.23-4.395 0-2.655 1.65-4.455 4.23-4.455 1.08 0 1.875.24 2.55.66l-.24 1.41c-.63-.465-1.335-.78-2.25-.78-1.68 0-2.76 1.155-2.76 3.15 0 1.965 1.125 3.135 2.79 3.135z" id="path-16" class="cls-11" fill-rule="evenodd"/><path d="M160 63h-6l1 3c0 1.104-.895 2-2 2h-6c-1.105 0-2-.896-2-2l1-3h-6c-1.105 0-2-.895-2-2V47c0-1.105.895-2 2-2h20c1.105 0 2 .895 2 2v14c0 1.105-.895 2-2 2zm-7 3l-1-3h-4l-1 3h6zm7-19h-20v14h20V47z" id="path-17" class="cls-15" fill-rule="evenodd"/></g></g><g id="client---client"><circle id="circle-3" class="cls-7" cx="50" cy="165" r="48"/><path d="M50 215c-27.614 0-50-22.386-50-50s22.386-50 50-50 50 22.386 50 50-22.386 50-50 50zm0-98c-26.51 0-48 21.49-48 48s21.49 48 48 48 48-21.49 48-48-21.49-48-48-48z" id="path-18" class="cls-22" fill-rule="evenodd"/><g id="comp-2" fill-rule="evenodd"><path d="M69.398 178.815V186h-1.5v-7.185h-2.865v-1.335h7.17l.195 1.335h-3zm-12.015.87V186h-1.35v-8.52h1.5l4.32 6.06v-6.06h1.35V186h-1.305l-4.515-6.315zm-9.135-2.205h5.46v1.335h-3.975v2.1h3.18l.225 1.305h-3.405v2.46h4.095V186h-5.58v-8.52zm-4.26 0h1.5V186h-1.5v-8.52zm-7.14 0h1.485v7.185h3.375l.21 1.335h-5.07v-8.52zm-4.695 7.41c.885 0 1.695-.315 2.4-.795l.195 1.32c-.705.45-1.65.75-2.685.75-2.625 0-4.23-1.785-4.23-4.395 0-2.655 1.65-4.455 4.23-4.455 1.08 0 1.875.24 2.55.66l-.24 1.41c-.63-.465-1.335-.78-2.25-.78-1.68 0-2.76 1.155-2.76 3.15 0 1.965 1.125 3.135 2.79 3.135z" id="path-19" class="cls-11"/><path d="M59.03 168.11c-2.487.57-6.192.89-9.03.89-2.838 0-6.543-.32-9.032-.89-1.077-.245-.968-2.106-.968-2.106 2.708.783 6.76 1.234 10 1.234s7.292-.45 10-1.234c0 0 .11 1.86-.97 2.107zM50.003 161h-.004c-3.96 0-7.226 2.165-7.864 5h-2.048c.432-2.766 2.63-5.09 5.658-6.234C43.497 158.35 42 155.852 42 153c0-4.418 3.582-8 8-8s8 3.582 8 8c0 2.852-1.497 5.35-3.744 6.766 3.03 1.144 5.226 3.468 5.658 6.234h-2.048c-.638-2.835-3.904-5-7.864-5zM56 153c0-3.314-2.686-6-6-6s-6 2.686-6 6 2.686 6 6 6 6-2.686 6-6z" id="path-20" class="cls-15"/></g></g></g><g id="api-side"><g id="partner-api"><circle id="circle-4" class="cls-7" cx="770" cy="265" r="48"/><path d="M770 315c-27.614 0-50-22.386-50-50s22.386-50 50-50 50 22.386 50 50-22.386 50-50 50zm0-98c-26.51 0-48 21.49-48 48s21.49 48 48 48 48-21.49 48-48-21.49-48-48-48z" id="path-21" class="cls-22" fill-rule="evenodd"/><path d="M795.783 274.875v-8.52h1.485v7.185h3.375l.21 1.335h-5.07zm-4.17-2.16h-3.9l-.825 2.16h-1.514l3.51-8.61h1.65l3.464 8.43-1.485.33-.9-2.31zm-1.935-5.025l-1.455 3.72h2.895l-1.44-3.72zm-11.91.87v6.315h-1.35v-8.52h1.5l4.32 6.06v-6.06h1.35v8.52h-1.305l-4.515-6.315zm-6.157 18.18h-1.154v3.135h-1.485v-8.52h2.806c1.98 0 3.21 1.02 3.21 2.67 0 1.77-1.35 2.715-3.375 2.715zm.016-4.11h-1.17v2.85h1.14c1.23 0 1.905-.45 1.905-1.425 0-.9-.644-1.425-1.874-1.425zm1.372-7.665l-2.49-3.33h-1.065v3.24h-1.47v-8.52h2.7c2.07 0 3.315.96 3.315 2.64 0 1.26-.75 2.07-1.89 2.415l2.52 3.225-1.62.33zm-.495-5.955c0-.87-.6-1.365-1.845-1.365h-1.215v2.805h1.215c1.185 0 1.845-.54 1.845-1.44zm-7.702 18.705h-3.9l-.824 2.16h-1.515l3.51-8.61h1.65l3.466 8.43-1.485.33-.9-2.31zm-1.934-5.025l-1.455 3.72h2.896l-1.44-3.72zm-2.677-16.335h5.458v1.335h-3.975v2.1h3.18l.225 1.305h-3.405v2.46h4.095v1.32h-5.58v-8.52zm-4.712 8.52h-1.5v-7.185h-2.864v-1.335h7.17l.194 1.335h-3v7.185zm-12.015-6.315v6.315h-1.35v-8.52h1.5l4.32 6.06v-6.06h1.35v8.52h-1.305l-4.515-6.315zm-5.61-2.205h1.5v8.52h-1.5v-8.52zm40.568 23.52h-1.5v-8.52h1.5v8.52z" id="path-22" class="cls-11" fill-rule="evenodd"/><path d="M777 258h-14c-1.105 0-2-.896-2-2v-10c0-1.104.895-2 2-2v-3h2v3h10v-3h2v3c1.105 0 2 .896 2 2v10c0 1.104-.895 2-2 2zm0-12h-14v10h14v-10zm-7-10c-2.76 0-5 2.238-5 5h-2c0-3.866 3.134-7 7-7s7 3.134 7 7h-2c0-2.762-2.24-5-5-5z" id="path-23" class="cls-15" fill-rule="evenodd"/></g><g id="private-api"><path d="M870 215c-27.614 0-50-22.386-50-50s22.386-50 50-50 50 22.386 50 50-22.386 50-50 50zm0-98c-26.51 0-48 21.49-48 48s21.49 48 48 48 48-21.49 48-48-21.49-48-48-48z" id="path-24" class="cls-22" fill-rule="evenodd"/><circle id="circle-5" class="cls-7" cx="870" cy="165" r="48"/><path d="M898.468 177.76l-1.62.33-2.49-3.33h-1.064V178h-1.47v-8.52h2.7c2.07 0 3.314.96 3.314 2.64 0 1.26-.75 2.07-1.89 2.415l2.52 3.225zm-2.114-5.625c0-.87-.6-1.365-1.845-1.365h-1.216v2.805h1.215c1.184 0 1.844-.54 1.844-1.44zm-12.315-2.655h5.46v1.335h-3.976v2.1h3.18l.225 1.305h-3.406v2.46h4.095V178h-5.58v-8.52zm-8.52 2.205V178h-1.35v-8.52h1.5l4.32 6.06v-6.06h1.348V178h-1.304l-4.515-6.315zm-3.91 18.18h-1.154V193h-1.485v-8.52h2.806c1.98 0 3.21 1.02 3.21 2.67 0 1.77-1.35 2.715-3.375 2.715zm.016-4.11h-1.17v2.85h1.14c1.23 0 1.905-.45 1.905-1.425 0-.9-.644-1.425-1.874-1.425zM869.46 178h-1.5v-7.185h-2.866v-1.335h7.17l.194 1.335h-3V178zm-6.856.09l-2.49-3.33h-1.065V178h-1.47v-8.52h2.7c2.07 0 3.313.96 3.313 2.64 0 1.26-.75 2.07-1.89 2.415l2.52 3.225-1.62.33zm-.495-5.955c0-.87-.6-1.365-1.846-1.365h-1.215v2.805h1.214c1.185 0 1.845-.54 1.845-1.44zm-8.7 3.705h-3.9l-.826 2.16h-1.515l3.51-8.61h1.65l3.463 8.43-1.485.33-.9-2.31zm-1.936-5.025l-1.455 3.72h2.894l-1.44-3.72zm-8.446 4.05h-1.155V178h-1.484v-8.52h2.803c1.98 0 3.21 1.02 3.21 2.67 0 1.77-1.35 2.715-3.375 2.715zm.015-4.11h-1.17v2.85h1.14c1.23 0 1.905-.45 1.905-1.425 0-.9-.645-1.425-1.875-1.425zm20.678 13.635l3.466 8.43-1.485.33-.9-2.31h-3.9l-.824 2.16h-1.515l3.51-8.61h1.65zm.586 5.145l-1.44-3.72-1.455 3.72h2.896zM878.42 193h-1.5v-8.52h1.5V193z" id="path-25" class="cls-11" fill-rule="evenodd"/><path d="M881 161h-22c-1.105 0-2-.895-2-2v-14c0-1.104.895-2 2-2h22c1.105 0 2 .896 2 2v14c0 1.105-.895 2-2 2zm-20.667-16l9.333 7h.668l9.333-7h-19.334zm20.667.75l-7.516 5.637L878 155v1h-1l-4.677-3.742-1.323.992v.75h-2v-.75l-1.323-.992L863 156h-1v-1l4.516-3.613L859 145.75V159h22v-13.25z" id="path-26" class="cls-15" fill-rule="evenodd"/></g><g id="cloud-api"><circle id="circle-6" class="cls-7" cx="770" cy="65" r="48"/><path d="M770 115c-27.614 0-50-22.386-50-50s22.386-50 50-50 50 22.386 50 50-22.386 50-50 50zm0-98c-26.51 0-48 21.49-48 48s21.49 48 48 48 48-21.49 48-48-21.49-48-48-48z" id="path-27" class="cls-22" fill-rule="evenodd"/><path d="M789.636 67.605c-1.68 0-2.76 1.155-2.76 3.15 0 1.965 1.125 3.135 2.79 3.135.885 0 1.695-.315 2.4-.795l.195 1.32c-.704.45-1.65.75-2.684.75-2.625 0-4.23-1.785-4.23-4.395 0-2.655 1.65-4.455 4.23-4.455 1.08 0 1.875.24 2.55.66l-.24 1.41c-.63-.465-1.335-.78-2.25-.78zm-8.055-1.125h1.5V75h-1.5v-8.52zm-7.14 0h1.486v7.185h3.375l.21 1.335h-5.07v-8.52zm1.546 17.67c0 1.77-1.35 2.715-3.375 2.715h-1.154V90h-1.485v-8.52h2.806c1.98 0 3.21 1.02 3.21 2.67zm-3.36-1.395h-1.17v2.85h1.14c1.23 0 1.905-.45 1.905-1.425 0-.9-.644-1.425-1.874-1.425zm-.42-10.26c0 1.71-1.305 2.505-3.33 2.505h-2.925v-8.52h2.91c1.996 0 2.956.9 2.956 2.175 0 .96-.54 1.53-1.305 1.845 1.02.285 1.696.885 1.696 1.995zm-3.405-4.77h-1.424v2.22h1.38c1.095 0 1.665-.405 1.665-1.17 0-.675-.494-1.05-1.62-1.05zm.12 3.42h-1.544v2.625h1.53c1.185 0 1.89-.36 1.89-1.275 0-.87-.645-1.35-1.875-1.35zM766.7 90.15l-.9-2.31h-3.9l-.824 2.16h-1.515l3.51-8.61h1.65l3.466 8.43-1.485.33zm-2.834-7.335l-1.455 3.72h2.896l-1.44-3.72zm-4.185-7.65c-2.204 0-3.554-1.26-3.554-3.465v-5.22h1.485v5.145c0 1.38.676 2.265 2.086 2.265 1.38 0 2.115-.795 2.115-2.235V66.48h1.5v5.145c0 2.295-1.394 3.54-3.63 3.54zm-8.744-3.3h-1.155V75h-1.484v-8.52h2.805c1.98 0 3.21 1.02 3.21 2.67 0 1.77-1.35 2.715-3.374 2.715zm.015-4.11h-1.17v2.85h1.14c1.23 0 1.906-.45 1.906-1.425 0-.9-.645-1.425-1.875-1.425zM779.42 90h-1.5v-8.52h1.5V90z" id="path-28" class="cls-11" fill-rule="evenodd"/><path d="M783 53c0 2.762-2.24 5-5 5h-17v-.1c-2.282-.464-4-2.48-4-4.9 0-2.127 1.334-3.932 3.206-4.655-.12-.43-.206-.876-.206-1.345 0-2.762 2.24-5 5-5 1.396 0 2.655.575 3.562 1.497.95-2.06 3.02-3.497 5.438-3.497 3.314 0 6 2.686 6 6 0 .804-.164 1.568-.45 2.27 1.997.655 3.45 2.513 3.45 4.73zm-5-3l-1-1-.06-.306c.652-.71 1.06-1.652 1.06-2.694 0-2.21-1.79-4-4-4s-4 1.79-4 4h-2l-.155.093C767.46 44.883 766.338 44 765 44c-1.657 0-3 1.343-3 3 0 .885.39 1.672 1 2.22V50l-.14.14c-.274-.083-.56-.14-.86-.14-1.657 0-3 1.343-3 3 0 1.356.905 2.488 2.14 2.86L761 56h17c1.657 0 3-1.343 3-3s-1.343-3-3-3z" id="path-29" class="cls-15" fill-rule="evenodd"/></g></g></g></svg>